<svg width="446" height="185" viewBox="0 0 446 185" fill="none" xmlns="http://www.w3.org/2000/svg">
<path d="M61.1795 0L93.6469 47.974H94.2924V0H110.115V76.2807H96.3771L63.704 28.277H63.1467V76.2807H47.2656V0H61.1795ZM177.289 0V13.2894H142.533V31.4657H174.677V44.7551H142.533V62.9913H177.436V76.2807H126.652V0H177.289ZM208.268 0L223.416 26.0131H224.003L239.239 0H257.175L234.248 38.1404L257.703 76.2807H239.415L224.003 50.2379H223.416L208.005 76.2807H189.804L213.318 38.1404L190.245 0H208.268ZM329.515 0V13.2894H306.5V76.2807H290.796V13.2894H267.781V0H329.515ZM385.771 41.8212C388.158 41.8212 390.242 42.2469 392.024 43.0982C393.806 43.9496 395.196 45.1343 396.194 46.6526C397.192 48.1708 397.705 49.9264 397.732 51.9193H391.211L391.132 51.3722C390.923 50.3137 390.409 49.4701 389.592 48.8414C388.638 48.1079 387.347 47.7412 385.72 47.7412C384.61 47.7412 383.672 47.9043 382.904 48.2307C382.137 48.557 381.553 49.0029 381.153 49.5683C380.753 50.1337 380.55 50.7777 380.544 51.5003C380.531 52.1006 380.656 52.6251 380.919 53.0737C381.182 53.5223 381.55 53.9076 382.023 54.2296C382.496 54.5515 383.042 54.8282 383.66 55.0595C384.277 55.2909 384.935 55.4884 385.632 55.6521L388.522 56.3725L389.553 56.6387C390.562 56.9257 391.506 57.2746 392.386 57.6856C393.558 58.2335 394.576 58.9064 395.439 59.7043C396.302 60.5022 396.971 61.4414 397.447 62.5219C397.924 63.6025 398.165 64.8402 398.172 66.235C398.165 68.2825 397.667 70.0572 396.676 71.5591C395.686 73.061 394.262 74.2234 392.403 75.0463C390.545 75.8692 388.304 76.2807 385.683 76.2807C383.084 76.2807 380.825 75.8671 378.906 75.0398C376.986 74.2125 375.491 72.983 374.42 71.3512C373.349 69.7195 372.785 67.6954 372.729 65.2788H379.312L379.385 65.9297C379.52 66.7677 379.808 67.4862 380.248 68.0852C380.799 68.8339 381.536 69.396 382.458 69.7715C383.381 70.1469 384.43 70.3347 385.607 70.3347C386.761 70.3347 387.763 70.1611 388.613 69.814C389.464 69.4668 390.124 68.9833 390.595 68.3634C391.067 67.7435 391.305 67.0252 391.311 66.2087C391.305 65.4556 391.09 64.8231 390.666 64.3112C390.242 63.7993 389.625 63.3627 388.814 63.0014C388.004 62.6402 387.014 62.3122 385.846 62.0175L382.34 61.1137L381.349 60.8376C379.1 60.1508 377.289 59.1661 375.915 57.8836C374.346 56.4178 373.564 54.4472 373.571 51.9718C373.564 49.9439 374.088 48.1697 375.143 46.6493C376.197 45.1288 377.645 43.944 379.487 43.0949C381.328 42.2458 383.423 41.8212 385.771 41.8212ZM365.219 42.2796V65.6587L365.188 66.5692C365.07 68.3549 364.614 69.9292 363.82 71.2923C362.893 72.8825 361.607 74.1093 359.962 74.9726C358.318 75.836 356.409 76.2677 354.238 76.2677C352.297 76.2677 350.54 75.9091 348.967 75.192C347.394 74.4749 346.146 73.3845 345.223 71.9209C344.299 70.4574 343.841 68.6101 343.847 66.3791H350.619L350.662 67.0182C350.735 67.6333 350.895 68.1767 351.142 68.6482C351.472 69.2769 351.93 69.7566 352.515 70.0874C353.1 70.4182 353.787 70.5836 354.577 70.5836C355.415 70.5836 356.124 70.3969 356.705 70.0236C357.286 69.6503 357.729 69.0974 358.032 68.365C358.336 67.6327 358.491 66.7305 358.497 65.6587V42.2796H365.219ZM333.285 68.4092C334.285 68.4092 335.162 68.7901 335.915 69.552C336.668 70.3139 337.047 71.2296 337.054 72.2993C337.047 73.0239 336.869 73.6836 336.518 74.2785C336.167 74.8733 335.709 75.347 335.144 75.6995C334.578 76.052 333.959 76.2283 333.285 76.2283C332.246 76.2283 331.356 75.8458 330.616 75.0807C329.876 74.3157 329.509 73.3885 329.515 72.2993C329.509 71.2296 329.876 70.3139 330.616 69.552C331.356 68.7901 332.246 68.4092 333.285 68.4092Z" fill="white"/>
<path d="M30.0319 161.715L17.4864 108.664H0L21.6882 185.005H37.2809L51.6901 135.085H52.2818L66.6915 185.005H82.2842L103.972 108.664H86.4861L73.9407 161.805H73.2893L59.4719 108.664H44.5005L30.6825 161.715H30.0319Z" fill="white"/>
<path d="M167.034 121.964V108.664H115.995V185.005H167.182V171.705H132.002V153.455H164.401V140.155H132.002V121.964H167.034Z" fill="white"/>
<path d="M234.297 121.964V108.664H183.258V185.005H234.445V171.705H199.265V153.455H231.664V140.155H199.265V121.964H234.297Z" fill="white"/>
<path d="M266.529 142.332V108.664H250.522V185.005H266.529V163.295L274.399 153.633L295.14 185.005H314.313L285.879 142.838L313.958 108.664H294.785L267.505 142.332H266.529Z" fill="white"/>
<path d="M341.811 171.705V108.664H325.803V185.005H374.268V171.705H341.811Z" fill="white"/>
<path d="M409.488 141.527L392.208 108.664H374.249L401.884 158.017V185.005H417.802V158.017L445.438 108.664H427.478L410.198 141.527H409.488Z" fill="white"/>
<rect y="91.0601" width="445.438" height="2" rx="1" fill="url(#paint0_linear_2194_85)"/>
<defs>
<linearGradient id="paint0_linear_2194_85" x1="0" y1="92.0601" x2="445.438" y2="92.0601" gradientUnits="userSpaceOnUse">
<stop stop-color="white" stop-opacity="0"/>
<stop offset="0.499422" stop-color="white"/>
<stop offset="1" stop-color="white" stop-opacity="0"/>
</linearGradient>
</defs>
</svg>
