<svg width="2714" height="512" viewBox="0 0 2714 512" fill="none" xmlns="http://www.w3.org/2000/svg">
<g clip-path="url(#clip0_2187_27)">
<path d="M261.142 25.2032L243.789 15.2544V97.7419L261.142 107.814V25.2032Z" fill="black"/>
<path d="M296.108 45.535L278.734 35.4829V118.076L296.108 128.045V45.535Z" fill="black"/>
<path d="M330.728 65.7658L313.375 55.8169V138.304L330.728 148.274V65.7658Z" fill="black"/>
<path d="M33.7949 145.396L51.1483 155.366V96.375L33.7949 106.324V145.396Z" fill="black"/>
<path d="M16.4228 135.343V116.604L0 126.014L16.4228 135.343Z" fill="black"/>
<path d="M435.274 126.239L418.002 116.269V136.291L400.628 146.24V106.321L383.378 96.372V155.985L366.004 165.954V85.9911L348.32 75.7113V158.322L363.894 167.423V334.542L363.046 335.058L348.32 326.599V343.642L330.738 353.591V316.009L313.385 305.729V363.66L296.115 373.92V295.448L278.74 285.189V383.892L261.159 393.84V274.911L243.806 264.632V403.788L226.432 414.171V254.368L217.951 248.742L218.282 82.7973L226.432 87.7823V5.29499L217.331 0L210.009 4.11602V86.9336L192.448 96.8826V14.3958L175.074 24.3446V106.849L157.7 116.901V34.6217L140.45 44.5706V126.85L122.766 136.82V54.6417L105.495 64.9008V146.867L88.1208 157.147V74.8452L68.7402 86.2832V165.293L71.3877 166.782L72.0289 335.039L88.1208 344.472V325.732L105.495 315.452V354.751L122.766 364.803V305.172L140.45 294.583V374.753L157.701 385.032V284.322L175.074 274.042V394.979L192.449 405.052V263.659L210.009 253.4V415.312L217.951 419.986V419.655V502.782L435.584 377.088L435.894 126.216L435.274 126.239Z" fill="black"/>
<path d="M713.808 103.9C712.888 95.7403 709.096 89.4192 702.429 84.9374C695.764 80.3979 687.375 78.1281 677.261 78.1281C670.021 78.1281 663.758 79.2774 658.471 81.5758C653.184 83.8169 649.076 86.92 646.146 90.885C643.272 94.792 641.836 99.2459 641.836 104.245C641.836 108.44 642.812 112.06 644.766 115.105C646.778 118.151 649.392 120.708 652.61 122.777C655.885 124.788 659.39 126.483 663.126 127.862C666.86 129.184 670.452 130.275 673.9 131.137L691.138 135.62C696.77 136.999 702.545 138.866 708.464 141.222C714.382 143.578 719.87 146.681 724.926 150.531C729.984 154.381 734.063 159.151 737.166 164.839C740.326 170.528 741.906 177.338 741.906 185.268C741.906 195.266 739.321 204.144 734.149 211.901C729.035 219.659 721.594 225.779 711.825 230.261C702.114 234.742 690.363 236.984 676.572 236.984C663.355 236.984 651.92 234.886 642.266 230.691C632.613 226.497 625.056 220.549 619.598 212.85C614.138 205.092 611.122 195.898 610.547 185.268H637.267C637.785 191.646 639.853 196.961 643.473 201.213C647.151 205.408 651.834 208.539 657.523 210.609C663.269 212.62 669.561 213.625 676.399 213.625C683.927 213.625 690.621 212.447 696.483 210.091C702.401 207.678 707.056 204.345 710.446 200.093C713.837 195.783 715.531 190.755 715.531 185.008C715.531 179.779 714.038 175.499 711.049 172.166C708.119 168.833 704.125 166.074 699.069 163.891C694.069 161.708 688.409 159.783 682.088 158.117L661.229 152.427C647.093 148.578 635.888 142.917 627.614 135.447C619.397 127.977 615.288 118.093 615.288 105.796C615.288 95.6251 618.046 86.7475 623.562 79.1624C629.079 71.5773 636.549 65.6874 645.973 61.4927C655.397 57.2404 666.027 55.1143 677.864 55.1143C689.817 55.1143 700.361 57.2116 709.498 61.4065C718.692 65.6012 725.932 71.3762 731.219 78.7315C736.505 86.0292 739.263 94.4184 739.493 103.9H713.808ZM790.155 155.444V234.053H764.383V57.5277H789.81V123.208H791.449C794.551 116.082 799.292 110.422 805.671 106.228C812.049 102.033 820.381 99.9351 830.667 99.9351C839.746 99.9351 847.675 101.802 854.456 105.538C861.295 109.273 866.581 114.847 870.314 122.259C874.11 129.615 876.009 138.809 876.009 149.841V234.053H850.233V152.945C850.233 143.233 847.733 135.705 842.734 130.362C837.735 124.96 830.782 122.259 821.875 122.259C815.784 122.259 810.325 123.552 805.498 126.138C800.728 128.724 796.965 132.516 794.207 137.515C791.506 142.457 790.155 148.434 790.155 155.444ZM941.639 236.984C933.257 236.984 925.672 235.432 918.884 232.329C912.105 229.169 906.731 224.601 902.769 218.625C898.859 212.648 896.909 205.322 896.909 196.645C896.909 189.175 898.348 183.026 901.217 178.199C904.095 173.372 907.97 169.551 912.851 166.736C917.74 163.92 923.201 161.794 929.234 160.357C935.268 158.921 941.414 157.829 947.673 157.081C955.604 156.163 962.045 155.415 966.986 154.841C971.928 154.209 975.516 153.203 977.762 151.824C979.998 150.445 981.116 148.204 981.116 145.101V144.497C981.116 136.97 978.992 131.137 974.745 127C970.549 122.863 964.282 120.794 955.951 120.794C947.274 120.794 940.434 122.719 935.441 126.57C930.491 130.362 927.076 134.585 925.177 139.24L900.957 133.723C903.835 125.678 908.031 119.186 913.544 114.244C919.118 109.244 925.524 105.624 932.763 103.383C940.01 101.085 947.621 99.9351 955.604 99.9351C960.892 99.9351 966.492 100.567 972.413 101.832C978.394 103.038 983.968 105.279 989.135 108.554C994.362 111.83 998.644 116.513 1001.98 122.605C1005.31 128.638 1006.97 136.481 1006.97 146.136V234.053H981.81V215.952H980.778C979.105 219.285 976.609 222.56 973.28 225.779C969.942 228.997 965.66 231.668 960.433 233.795C955.206 235.92 948.938 236.984 941.639 236.984ZM947.248 216.297C954.373 216.297 960.459 214.889 965.521 212.074C970.636 209.258 974.511 205.58 977.155 201.041C979.859 196.444 981.203 191.531 981.203 186.302V169.235C980.284 170.155 978.507 171.016 975.863 171.821C973.28 172.568 970.315 173.229 966.986 173.803C963.649 174.321 960.407 174.809 957.243 175.269C954.087 175.671 951.443 176.016 949.311 176.303C944.318 176.935 939.749 177.998 935.606 179.493C931.532 180.986 928.255 183.141 925.784 185.957C923.374 188.715 922.161 192.392 922.161 196.989C922.161 203.368 924.519 208.194 929.234 211.47C933.941 214.688 939.949 216.297 947.248 216.297ZM1083.59 236.639C1072.9 236.639 1063.36 233.909 1054.96 228.451C1046.63 222.934 1040.09 215.09 1035.31 204.919C1030.61 194.691 1028.25 182.423 1028.25 168.115C1028.25 153.806 1030.63 141.567 1035.4 131.396C1040.23 121.225 1046.83 113.439 1055.22 108.038C1063.62 102.636 1073.13 99.9351 1083.75 99.9351C1091.97 99.9351 1098.59 101.314 1103.58 104.073C1108.64 106.773 1112.55 109.934 1115.31 113.554C1118.12 117.174 1120.3 120.363 1121.85 123.121H1123.4V57.5277H1149.18V234.053H1124.01V213.453H1121.85C1120.3 216.268 1118.06 219.486 1115.13 223.106C1112.26 226.726 1108.29 229.887 1103.24 232.588C1098.18 235.288 1091.63 236.639 1083.59 236.639ZM1089.28 214.66C1096.69 214.66 1102.95 212.706 1108.06 208.798C1113.24 204.834 1117.14 199.346 1119.79 192.335C1122.48 185.325 1123.84 177.165 1123.84 167.856C1123.84 158.662 1122.52 150.617 1119.88 143.721C1117.23 136.826 1113.35 131.453 1108.23 127.604C1103.12 123.753 1096.8 121.829 1089.28 121.829C1081.52 121.829 1075.05 123.84 1069.88 127.862C1064.71 131.884 1060.8 137.372 1058.15 144.325C1055.57 151.278 1054.28 159.122 1054.28 167.856C1054.28 176.706 1055.6 184.664 1058.24 191.732C1060.89 198.799 1064.79 204.402 1069.97 208.539C1075.2 212.62 1081.63 214.66 1089.28 214.66ZM1234.45 236.725C1221.64 236.725 1210.6 233.823 1201.35 228.02C1192.15 222.158 1185.09 214.085 1180.15 203.799C1175.21 193.513 1172.74 181.733 1172.74 168.459C1172.74 155.013 1175.26 143.147 1180.32 132.861C1185.38 122.518 1192.5 114.445 1201.69 108.641C1210.89 102.837 1221.72 99.9351 1234.19 99.9351C1244.24 99.9351 1253.21 101.802 1261.08 105.538C1268.95 109.216 1275.3 114.387 1280.13 121.053C1285.01 127.718 1287.92 135.504 1288.84 144.411H1263.76C1262.37 138.205 1259.22 132.861 1254.27 128.38C1249.39 123.897 1242.84 121.656 1234.62 121.656C1227.44 121.656 1221.14 123.552 1215.74 127.345C1210.4 131.08 1206.23 136.424 1203.24 143.377C1200.26 150.272 1198.76 158.432 1198.76 167.856C1198.76 177.51 1200.23 185.841 1203.16 192.853C1206.09 199.863 1210.23 205.293 1215.57 209.143C1220.97 212.993 1227.32 214.918 1234.62 214.918C1239.5 214.918 1243.93 214.028 1247.89 212.246C1251.92 210.408 1255.28 207.792 1257.98 204.402C1260.74 201.012 1262.67 196.932 1263.76 192.163H1288.84C1287.92 200.725 1285.13 208.367 1280.48 215.09C1275.82 221.814 1269.58 227.1 1261.77 230.95C1254.01 234.8 1244.9 236.725 1234.45 236.725ZM1334.88 155.444V234.053H1309.11V101.659H1333.85V123.208H1335.49C1338.53 116.198 1343.3 110.565 1349.8 106.314C1356.35 102.062 1364.59 99.9351 1374.53 99.9351C1383.56 99.9351 1391.46 101.832 1398.24 105.624C1405.02 109.359 1410.28 114.933 1414.01 122.345C1417.75 129.758 1419.61 138.923 1419.61 149.841V234.053H1393.84V152.945C1393.84 143.349 1391.34 135.849 1386.34 130.448C1381.35 124.989 1374.48 122.259 1365.74 122.259C1359.77 122.259 1354.45 123.552 1349.8 126.138C1345.2 128.724 1341.55 132.516 1338.85 137.515C1336.21 142.457 1334.88 148.434 1334.88 155.444ZM1448.96 234.053V57.5277H1474.74V123.121H1476.29C1477.79 120.363 1479.94 117.174 1482.75 113.554C1485.57 109.934 1489.48 106.773 1494.47 104.073C1499.48 101.314 1506.08 99.9351 1514.3 99.9351C1524.99 99.9351 1534.53 102.636 1542.91 108.038C1551.31 113.439 1557.89 121.225 1562.65 131.396C1567.48 141.567 1569.9 153.806 1569.9 168.115C1569.9 182.423 1567.52 194.691 1562.74 204.919C1557.97 215.09 1551.42 222.934 1543.09 228.451C1534.76 233.909 1525.25 236.639 1514.56 236.639C1506.51 236.639 1499.94 235.288 1494.82 232.588C1489.77 229.887 1485.8 226.726 1482.93 223.106C1480.06 219.486 1477.84 216.268 1476.29 213.453H1474.14V234.053H1448.96ZM1474.22 167.856C1474.22 177.165 1475.57 185.325 1478.27 192.335C1480.98 199.346 1484.88 204.834 1489.99 208.798C1495.11 212.706 1501.37 214.66 1508.79 214.66C1516.48 214.66 1522.92 212.62 1528.09 208.539C1533.27 204.402 1537.18 198.799 1539.81 191.732C1542.52 184.664 1543.87 176.706 1543.87 167.856C1543.87 159.122 1542.54 151.278 1539.9 144.325C1537.31 137.372 1533.4 131.884 1528.18 127.862C1523.01 123.84 1516.54 121.829 1508.79 121.829C1501.31 121.829 1494.99 123.753 1489.82 127.604C1484.7 131.453 1480.83 136.826 1478.19 143.721C1475.54 150.617 1474.22 158.662 1474.22 167.856ZM1617.33 57.5277V234.053H1591.55V57.5277H1617.33ZM1700.48 236.725C1688.07 236.725 1677.24 233.881 1667.99 228.192C1658.74 222.503 1651.56 214.544 1646.44 204.316C1641.33 194.088 1638.77 182.136 1638.77 168.459C1638.77 154.726 1641.33 142.716 1646.44 132.43C1651.56 122.144 1658.74 114.157 1667.99 108.469C1677.24 102.779 1688.07 99.9351 1700.48 99.9351C1712.9 99.9351 1723.73 102.779 1732.98 108.469C1742.23 114.157 1749.41 122.144 1754.53 132.43C1759.64 142.716 1762.2 154.726 1762.2 168.459C1762.2 182.136 1759.64 194.088 1754.53 204.316C1749.41 214.544 1742.23 222.503 1732.98 228.192C1723.73 233.881 1712.9 236.725 1700.48 236.725ZM1700.57 215.09C1708.62 215.09 1715.28 212.964 1720.57 208.712C1725.86 204.46 1729.76 198.799 1732.29 191.732C1734.87 184.664 1736.16 176.878 1736.16 168.373C1736.16 159.927 1734.87 152.169 1732.29 145.101C1729.76 137.976 1725.86 132.258 1720.57 127.948C1715.28 123.639 1708.62 121.484 1700.57 121.484C1692.47 121.484 1685.75 123.639 1680.4 127.948C1675.11 132.258 1671.18 137.976 1668.59 145.101C1666.06 152.169 1664.8 159.927 1664.8 168.373C1664.8 176.878 1666.06 184.664 1668.59 191.732C1671.18 198.799 1675.11 204.46 1680.4 208.712C1685.75 212.964 1692.47 215.09 1700.57 215.09ZM1839.45 236.725C1826.64 236.725 1815.6 233.823 1806.35 228.02C1797.16 222.158 1790.09 214.085 1785.15 203.799C1780.21 193.513 1777.74 181.733 1777.74 168.459C1777.74 155.013 1780.26 143.147 1785.32 132.861C1790.38 122.518 1797.5 114.445 1806.7 108.641C1815.89 102.837 1826.73 99.9351 1839.19 99.9351C1849.25 99.9351 1858.21 101.802 1866.08 105.538C1873.96 109.216 1880.31 114.387 1885.14 121.053C1890.02 127.718 1892.92 135.504 1893.84 144.411H1868.76C1867.38 138.205 1864.22 132.861 1859.28 128.38C1854.4 123.897 1847.84 121.656 1839.63 121.656C1832.44 121.656 1826.15 123.552 1820.74 127.345C1815.4 131.08 1811.24 136.424 1808.25 143.377C1805.26 150.272 1803.77 158.432 1803.77 167.856C1803.77 177.51 1805.24 185.841 1808.17 192.853C1811.1 199.863 1815.23 205.293 1820.57 209.143C1825.98 212.993 1832.33 214.918 1839.63 214.918C1844.51 214.918 1848.94 214.028 1852.9 212.246C1856.92 210.408 1860.28 207.792 1862.99 204.402C1865.74 201.012 1867.67 196.932 1868.76 192.163H1893.84C1892.92 200.725 1890.14 208.367 1885.48 215.09C1880.83 221.814 1874.59 227.1 1866.78 230.95C1859.02 234.8 1849.91 236.725 1839.45 236.725ZM1937.82 189.146L1937.65 157.685H1942.13L1994.88 101.659H2025.74L1965.58 165.442H1961.52L1937.82 189.146ZM1914.12 234.053V57.5277H1939.9V234.053H1914.12ZM1997.72 234.053L1950.32 171.132L1968.08 153.117L2029.36 234.053H1997.72ZM2141.16 133.982L2117.79 138.119C2116.82 135.131 2115.27 132.287 2113.15 129.586C2111.08 126.885 2108.26 124.673 2104.7 122.949C2101.13 121.225 2096.68 120.363 2091.34 120.363C2084.04 120.363 2077.94 122.001 2073.06 125.276C2068.17 128.494 2065.74 132.66 2065.74 137.775C2065.74 142.199 2067.38 145.762 2070.65 148.462C2073.92 151.163 2079.21 153.376 2086.51 155.099L2107.54 159.927C2119.73 162.742 2128.8 167.08 2134.78 172.942C2140.76 178.803 2143.74 186.416 2143.74 195.783C2143.74 203.713 2141.44 210.78 2136.85 216.986C2132.31 223.135 2125.96 227.962 2117.79 231.467C2109.7 234.973 2100.3 236.725 2089.61 236.725C2074.79 236.725 2062.69 233.565 2053.32 227.244C2043.95 220.865 2038.22 211.815 2036.08 200.093L2061 196.3C2062.55 202.793 2065.74 207.706 2070.57 211.04C2075.39 214.315 2081.68 215.952 2089.44 215.952C2097.89 215.952 2104.63 214.2 2109.7 210.695C2114.75 207.132 2117.28 202.793 2117.28 197.679C2117.28 193.542 2115.73 190.066 2112.63 187.25C2109.58 184.434 2104.89 182.308 2098.58 180.872L2076.17 175.958C2063.81 173.143 2054.68 168.66 2048.76 162.512C2042.9 156.364 2039.97 148.578 2039.97 139.154C2039.97 131.338 2042.15 124.5 2046.51 118.639C2050.88 112.778 2056.91 108.21 2064.62 104.934C2072.32 101.601 2081.13 99.9351 2091.08 99.9351C2105.39 99.9351 2116.65 103.038 2124.87 109.244C2133.09 115.393 2138.51 123.639 2141.16 133.982ZM2181.78 235.691C2177.06 235.691 2173.01 234.024 2169.62 230.691C2166.23 227.301 2164.54 223.222 2164.54 218.452C2164.54 213.74 2166.23 209.718 2169.62 206.384C2173.01 202.994 2177.06 201.299 2181.78 201.299C2186.49 201.299 2190.54 202.994 2193.93 206.384C2197.32 209.718 2199.02 213.74 2199.02 218.452C2199.02 221.613 2198.21 224.514 2196.6 227.157C2195.05 229.743 2192.99 231.812 2190.39 233.364C2187.81 234.915 2184.94 235.691 2181.78 235.691ZM2282.02 236.725C2269.21 236.725 2258.17 233.823 2248.92 228.02C2239.73 222.158 2232.66 214.085 2227.72 203.799C2222.78 193.513 2220.31 181.733 2220.31 168.459C2220.31 155.013 2222.83 143.147 2227.89 132.861C2232.95 122.518 2240.07 114.445 2249.27 108.641C2258.46 102.837 2269.3 99.9351 2281.76 99.9351C2291.82 99.9351 2300.78 101.802 2308.66 105.538C2316.53 109.216 2322.88 114.387 2327.71 121.053C2332.59 127.718 2335.49 135.504 2336.41 144.411H2311.33C2309.95 138.205 2306.79 132.861 2301.85 128.38C2296.97 123.897 2290.41 121.656 2282.19 121.656C2275.01 121.656 2268.72 123.552 2263.31 127.345C2257.97 131.08 2253.81 136.424 2250.82 143.377C2247.83 150.272 2246.34 158.432 2246.34 167.856C2246.34 177.51 2247.81 185.841 2250.74 192.853C2253.67 199.863 2257.8 205.293 2263.15 209.143C2268.55 212.993 2274.9 214.918 2282.19 214.918C2287.08 214.918 2291.5 214.028 2295.47 212.246C2299.49 210.408 2302.85 207.792 2305.56 204.402C2308.31 201.012 2310.24 196.932 2311.33 192.163H2336.41C2335.49 200.725 2332.71 208.367 2328.05 215.09C2323.4 221.814 2317.16 227.1 2309.35 230.95C2301.59 234.8 2292.48 236.725 2282.02 236.725ZM2412.46 236.725C2400.05 236.725 2389.21 233.881 2379.96 228.192C2370.71 222.503 2363.52 214.544 2358.41 204.316C2353.3 194.088 2350.75 182.136 2350.75 168.459C2350.75 154.726 2353.3 142.716 2358.41 132.43C2363.52 122.144 2370.71 114.157 2379.96 108.469C2389.21 102.779 2400.05 99.9351 2412.46 99.9351C2424.87 99.9351 2435.7 102.779 2444.95 108.469C2454.21 114.157 2461.38 122.144 2466.5 132.43C2471.61 142.716 2474.17 154.726 2474.17 168.459C2474.17 182.136 2471.61 194.088 2466.5 204.316C2461.38 214.544 2454.21 222.503 2444.95 228.192C2435.7 233.881 2424.87 236.725 2412.46 236.725ZM2412.55 215.09C2420.59 215.09 2427.26 212.964 2432.54 208.712C2437.82 204.46 2441.73 198.799 2444.26 191.732C2446.85 184.664 2448.14 176.878 2448.14 168.373C2448.14 159.927 2446.85 152.169 2444.26 145.101C2441.73 137.976 2437.82 132.258 2432.54 127.948C2427.26 123.639 2420.59 121.484 2412.55 121.484C2404.44 121.484 2397.72 123.639 2392.37 127.948C2387.09 132.258 2383.15 137.976 2380.57 145.101C2378.04 152.169 2376.77 159.927 2376.77 168.373C2376.77 176.878 2378.04 184.664 2380.57 191.732C2383.15 198.799 2387.09 204.46 2392.37 208.712C2397.72 212.964 2404.44 215.09 2412.55 215.09ZM2495.66 234.053V101.659H2520.39V123.208H2522.03C2524.79 115.91 2529.3 110.221 2535.56 106.141C2541.83 102.003 2549.33 99.9351 2558.07 99.9351C2566.91 99.9351 2574.32 102.003 2580.3 106.141C2586.33 110.279 2590.79 115.967 2593.66 123.208H2595.04C2598.2 116.139 2603.23 110.508 2610.12 106.314C2617.02 102.062 2625.24 99.9351 2634.78 99.9351C2646.78 99.9351 2656.59 103.699 2664.17 111.227C2671.81 118.754 2675.63 130.103 2675.63 145.273V234.053H2649.86V147.686C2649.86 138.722 2647.41 132.229 2642.53 128.207C2637.64 124.185 2631.82 122.174 2625.03 122.174C2616.65 122.174 2610.12 124.759 2605.47 129.93C2600.81 135.045 2598.49 141.624 2598.49 149.669V234.053H2572.8V146.049C2572.8 138.866 2570.56 133.091 2566.08 128.724C2561.59 124.356 2555.76 122.174 2548.58 122.174C2543.69 122.174 2539.19 123.466 2535.05 126.052C2530.97 128.581 2527.67 132.114 2525.13 136.654C2522.66 141.194 2521.43 146.451 2521.43 152.427V234.053H2495.66Z" fill="black"/>
<path d="M608.217 476.775V461.925L647.613 423.304C651.381 419.499 654.521 416.119 657.032 413.163C659.544 410.208 661.428 407.346 662.684 404.575C663.94 401.805 664.569 398.85 664.569 395.709C664.569 392.126 663.756 389.06 662.13 386.512C660.505 383.926 658.27 381.93 655.426 380.527C652.581 379.123 649.349 378.421 645.729 378.421C641.998 378.421 638.728 379.197 635.922 380.749C633.114 382.263 630.934 384.424 629.383 387.232C627.868 390.039 627.111 393.382 627.111 397.261H607.551C607.551 390.057 609.195 383.796 612.482 378.477C615.77 373.158 620.295 369.038 626.058 366.12C631.858 363.202 638.507 361.743 646.006 361.743C653.616 361.743 660.302 363.165 666.064 366.009C671.827 368.854 676.297 372.751 679.474 377.701C682.688 382.651 684.294 388.303 684.294 394.657C684.294 398.904 683.482 403.079 681.857 407.179C680.231 411.28 677.368 415.823 673.268 420.81C669.205 425.797 663.497 431.837 656.146 438.929L636.586 458.822V459.598H686.013V476.775H608.217ZM740.833 478.936C731.709 478.936 723.878 476.627 717.339 472.01C710.838 467.355 705.833 460.65 702.323 451.896C698.851 443.104 697.114 432.521 697.114 420.145C697.152 407.771 698.906 397.243 702.378 388.562C705.888 379.844 710.893 373.194 717.395 368.613C723.933 364.033 731.746 361.743 740.833 361.743C749.92 361.743 757.733 364.033 764.272 368.613C770.81 373.194 775.815 379.844 779.288 388.562C782.797 397.279 784.552 407.807 784.552 420.145C784.552 432.557 782.797 443.16 779.288 451.951C775.815 460.706 770.81 467.392 764.272 472.01C757.771 476.627 749.958 478.936 740.833 478.936ZM740.833 461.593C747.926 461.593 753.522 458.102 757.622 451.12C761.76 444.101 763.828 433.777 763.828 420.145C763.828 411.132 762.887 403.559 761.002 397.427C759.119 391.295 756.459 386.677 753.024 383.575C749.588 380.435 745.525 378.865 740.833 378.865C733.778 378.865 728.199 382.374 724.099 389.392C719.999 396.374 717.93 406.626 717.893 420.145C717.856 429.196 718.762 436.805 720.608 442.975C722.493 449.144 725.152 453.798 728.588 456.938C732.023 460.041 736.105 461.593 740.833 461.593ZM838.667 478.936C829.542 478.936 821.711 476.627 815.172 472.01C808.67 467.355 803.665 460.65 800.156 451.896C796.683 443.104 794.948 432.521 794.948 420.145C794.984 407.771 796.739 397.243 800.212 388.562C803.721 379.844 808.726 373.194 815.227 368.613C821.766 364.033 829.579 361.743 838.667 361.743C847.754 361.743 855.567 364.033 862.105 368.613C868.645 373.194 873.647 379.844 877.123 388.562C880.634 397.279 882.385 407.807 882.385 420.145C882.385 432.557 880.634 443.16 877.123 451.951C873.647 460.706 868.645 467.392 862.105 472.01C855.603 476.627 847.79 478.936 838.667 478.936ZM838.667 461.593C845.759 461.593 851.356 458.102 855.456 451.12C859.593 444.101 861.662 433.777 861.662 420.145C861.662 411.132 860.72 403.559 858.836 397.427C856.952 391.295 854.292 386.677 850.856 383.575C847.421 380.435 843.358 378.865 838.667 378.865C831.611 378.865 826.033 382.374 821.933 389.392C817.832 396.374 815.763 406.626 815.727 420.145C815.69 429.196 816.594 436.805 818.442 442.975C820.325 449.144 822.985 453.798 826.42 456.938C829.856 460.041 833.938 461.593 838.667 461.593ZM936.504 478.936C927.376 478.936 919.548 476.627 913.003 472.01C906.501 467.355 901.5 460.65 897.989 451.896C894.513 443.104 892.779 432.521 892.779 420.145C892.814 407.771 894.573 397.243 898.041 388.562C901.552 379.844 906.562 373.194 913.064 368.613C919.6 364.033 927.41 361.743 936.504 361.743C945.588 361.743 953.399 364.033 959.935 368.613C966.48 373.194 971.482 379.844 974.958 388.562C978.46 397.279 980.22 407.807 980.22 420.145C980.22 432.557 978.46 443.16 974.958 451.951C971.482 460.706 966.48 467.392 959.935 472.01C953.434 476.627 945.623 478.936 936.504 478.936ZM936.504 461.593C943.595 461.593 949.186 458.102 953.286 451.12C957.43 444.101 959.493 433.777 959.493 420.145C959.493 411.132 958.557 403.559 956.667 397.427C954.786 391.295 952.125 386.677 948.692 383.575C945.25 380.435 941.193 378.865 936.504 378.865C929.447 378.865 923.865 382.374 919.764 389.392C915.664 396.374 913.592 406.626 913.558 420.145C913.523 429.196 914.425 436.805 916.271 442.975C918.161 449.144 920.822 453.798 924.255 456.938C927.688 460.041 931.771 461.593 936.504 461.593ZM1026.08 458.6V381.912H1043.47V458.6H1026.08ZM996.43 428.956V411.557H1073.12V428.956H996.43ZM1161.5 478.438C1152.97 478.438 1145.59 476.664 1139.39 473.118C1133.22 469.535 1128.47 464.474 1125.15 457.935C1121.82 451.36 1120.16 443.621 1120.16 434.718C1120.16 425.964 1121.82 418.28 1125.15 411.667C1128.51 405.018 1133.2 399.847 1139.22 396.153C1145.24 392.422 1152.32 390.556 1160.45 390.556C1165.69 390.556 1170.64 391.406 1175.3 393.105C1179.99 394.768 1184.12 397.354 1187.7 400.863C1191.33 404.372 1194.17 408.842 1196.24 414.272C1198.31 419.665 1199.35 426.093 1199.35 433.555V439.705H1129.58V426.185H1180.12C1180.08 422.344 1179.25 418.926 1177.62 415.934C1176 412.905 1173.72 410.522 1170.81 408.787C1167.92 407.05 1164.57 406.182 1160.72 406.182C1156.62 406.182 1153.02 407.179 1149.92 409.174C1146.81 411.132 1144.4 413.718 1142.66 416.932C1140.96 420.109 1140.09 423.6 1140.05 427.404V439.207C1140.05 444.156 1140.96 448.405 1142.77 451.951C1144.58 455.46 1147.11 458.157 1150.36 460.041C1153.61 461.888 1157.42 462.811 1161.78 462.811C1164.7 462.811 1167.33 462.405 1169.7 461.593C1172.07 460.743 1174.11 459.505 1175.85 457.88C1177.59 456.254 1178.9 454.242 1179.78 451.84L1198.51 453.946C1197.33 458.896 1195.08 463.218 1191.75 466.912C1188.47 470.569 1184.25 473.413 1179.12 475.445C1173.98 477.44 1168.11 478.438 1161.5 478.438ZM1224.64 391.664L1241.82 423.082L1259.27 391.664H1280.5L1254.84 434.22L1280.94 476.775H1259.83L1241.82 446.133L1223.98 476.775H1202.7L1228.64 434.22L1203.37 391.664H1224.64ZM1332.27 391.664V407.179H1283.35V391.664H1332.27ZM1295.42 371.273H1315.48V451.175C1315.48 453.872 1315.89 455.941 1316.7 457.381C1317.55 458.785 1318.66 459.745 1320.02 460.263C1321.39 460.779 1322.91 461.039 1324.57 461.039C1325.82 461.039 1326.97 460.946 1328.01 460.761C1329.07 460.577 1329.89 460.41 1330.44 460.263L1333.82 475.944C1332.75 476.313 1331.22 476.719 1329.22 477.162C1327.27 477.606 1324.87 477.865 1322.02 477.938C1317 478.086 1312.47 477.329 1308.44 475.667C1304.42 473.967 1301.22 471.345 1298.86 467.798C1296.53 464.252 1295.39 459.819 1295.42 454.5V371.273ZM1342.8 476.775V391.664H1362.26V405.85H1363.14C1364.69 400.936 1367.35 397.15 1371.12 394.49C1374.92 391.793 1379.26 390.445 1384.14 390.445C1385.25 390.445 1386.48 390.501 1387.85 390.612C1389.26 390.686 1390.42 390.815 1391.35 390.999V409.451C1390.5 409.156 1389.15 408.897 1387.3 408.676C1385.49 408.416 1383.74 408.287 1382.04 408.287C1378.38 408.287 1375.09 409.082 1372.17 410.67C1369.29 412.222 1367.02 414.383 1365.36 417.154C1363.69 419.924 1362.86 423.119 1362.86 426.739V476.775H1342.8ZM1421.39 478.493C1416 478.493 1411.15 477.533 1406.82 475.612C1402.54 473.653 1399.14 470.772 1396.63 466.967C1394.16 463.162 1392.92 458.471 1392.92 452.893C1392.92 448.091 1393.8 444.12 1395.58 440.979C1397.35 437.84 1399.77 435.328 1402.83 433.444C1405.9 431.56 1409.35 430.138 1413.19 429.177C1417.08 428.18 1421.08 427.46 1425.23 427.016C1430.21 426.499 1434.25 426.037 1437.35 425.631C1440.46 425.188 1442.71 424.523 1444.11 423.636C1445.55 422.713 1446.27 421.29 1446.27 419.369V419.037C1446.27 414.863 1445.04 411.631 1442.56 409.341C1440.09 407.05 1436.52 405.905 1431.87 405.905C1426.96 405.905 1423.06 406.977 1420.18 409.119C1417.34 411.262 1415.41 413.792 1414.42 416.71L1395.69 414.05C1397.16 408.878 1399.6 404.556 1403 401.085C1406.4 397.575 1410.56 394.952 1415.47 393.216C1420.38 391.442 1425.81 390.556 1431.76 390.556C1435.86 390.556 1439.94 391.037 1444 391.997C1448.07 392.958 1451.78 394.546 1455.14 396.762C1458.5 398.942 1461.2 401.915 1463.23 405.683C1465.3 409.451 1466.33 414.161 1466.33 419.813V476.775H1447.05V465.083H1446.39C1445.17 467.447 1443.45 469.664 1441.24 471.732C1439.05 473.764 1436.3 475.408 1432.97 476.664C1429.69 477.883 1425.83 478.493 1421.39 478.493ZM1426.6 463.754C1430.63 463.754 1434.12 462.959 1437.08 461.371C1440.03 459.745 1442.3 457.603 1443.9 454.943C1445.52 452.283 1446.33 449.384 1446.33 446.244V436.214C1445.7 436.732 1444.63 437.212 1443.12 437.655C1441.64 438.099 1439.98 438.486 1438.13 438.818C1436.29 439.151 1434.46 439.447 1432.65 439.705C1430.83 439.964 1429.26 440.185 1427.94 440.37C1424.95 440.777 1422.27 441.441 1419.9 442.365C1417.54 443.289 1415.67 444.581 1414.3 446.244C1412.94 447.869 1412.26 449.975 1412.26 452.561C1412.26 456.254 1413.6 459.043 1416.3 460.928C1418.99 462.811 1422.43 463.754 1426.6 463.754ZM1575.29 394.49C1574.77 389.651 1572.58 385.883 1568.74 383.186C1564.94 380.49 1559.99 379.142 1553.89 379.142C1549.61 379.142 1545.94 379.788 1542.87 381.081C1539.81 382.374 1537.46 384.129 1535.83 386.345C1534.21 388.562 1533.38 391.092 1533.34 393.936C1533.34 396.3 1533.88 398.35 1534.94 400.087C1536.05 401.823 1537.55 403.3 1539.43 404.52C1541.32 405.701 1543.4 406.699 1545.69 407.511C1547.98 408.325 1550.3 409.008 1552.62 409.562L1563.26 412.222C1567.55 413.219 1571.66 414.568 1575.62 416.267C1579.61 417.966 1583.17 420.109 1586.31 422.695C1589.49 425.28 1592 428.401 1593.85 432.058C1595.69 435.716 1596.62 440.001 1596.62 444.914C1596.62 451.563 1594.91 457.418 1591.52 462.479C1588.12 467.503 1583.21 471.437 1576.78 474.282C1570.39 477.089 1562.65 478.493 1553.56 478.493C1544.73 478.493 1537.07 477.126 1530.57 474.392C1524.1 471.659 1519.05 467.669 1515.39 462.424C1511.76 457.178 1509.81 450.787 1509.51 443.251H1529.73C1530.03 447.204 1531.25 450.492 1533.39 453.115C1535.53 455.738 1538.32 457.695 1541.76 458.989C1545.23 460.281 1549.11 460.928 1553.4 460.928C1557.86 460.928 1561.78 460.263 1565.15 458.933C1568.54 457.566 1571.21 455.682 1573.12 453.281C1575.05 450.843 1576.02 447.998 1576.06 444.748C1576.02 441.793 1575.16 439.354 1573.46 437.433C1571.76 435.476 1569.38 433.85 1566.31 432.557C1563.28 431.227 1559.74 430.046 1555.67 429.011L1542.75 425.686C1533.41 423.285 1526.02 419.647 1520.6 414.771C1515.2 409.857 1512.5 403.337 1512.5 395.211C1512.5 388.525 1514.31 382.67 1517.94 377.645C1521.59 372.622 1526.56 368.724 1532.84 365.954C1539.12 363.146 1546.23 361.743 1554.17 361.743C1562.22 361.743 1569.28 363.146 1575.34 365.954C1581.43 368.724 1586.22 372.585 1589.7 377.534C1593.16 382.448 1594.96 388.1 1595.07 394.49H1575.29ZM1627.87 426.906V476.775H1607.81V363.294H1627.43V406.126H1628.43C1630.42 401.325 1633.51 397.538 1637.69 394.768C1641.9 391.96 1647.25 390.556 1653.75 390.556C1659.66 390.556 1664.82 391.793 1669.21 394.268C1673.61 396.744 1677.01 400.364 1679.41 405.129C1681.84 409.894 1683.07 415.713 1683.07 422.584V476.775H1663.01V425.686C1663.01 419.96 1661.52 415.509 1658.58 412.333C1655.66 409.119 1651.55 407.511 1646.27 407.511C1642.72 407.511 1639.55 408.287 1636.74 409.839C1633.97 411.353 1631.79 413.552 1630.2 416.433C1628.65 419.314 1627.87 422.805 1627.87 426.906ZM1721.76 478.493C1716.37 478.493 1711.51 477.533 1707.19 475.612C1702.9 473.653 1699.5 470.772 1697 466.967C1694.52 463.162 1693.28 458.471 1693.28 452.893C1693.28 448.091 1694.17 444.12 1695.94 440.979C1697.72 437.84 1700.13 435.328 1703.19 433.444C1706.26 431.56 1709.72 430.138 1713.56 429.177C1717.44 428.18 1721.45 427.46 1725.59 427.016C1730.57 426.499 1734.62 426.037 1737.72 425.631C1740.82 425.188 1743.08 424.523 1744.47 423.636C1745.92 422.713 1746.64 421.29 1746.64 419.369V419.037C1746.64 414.863 1745.4 411.631 1742.93 409.341C1740.45 407.05 1736.89 405.905 1732.23 405.905C1727.32 405.905 1723.43 406.977 1720.54 409.119C1717.7 411.262 1715.77 413.792 1714.78 416.71L1696.05 414.05C1697.52 408.878 1699.97 404.556 1703.37 401.085C1706.77 397.575 1710.92 394.952 1715.83 393.216C1720.75 391.442 1726.17 390.556 1732.12 390.556C1736.22 390.556 1740.3 391.037 1744.37 391.997C1748.43 392.958 1752.15 394.546 1755.51 396.762C1758.86 398.942 1761.56 401.915 1763.6 405.683C1765.66 409.451 1766.7 414.161 1766.7 419.813V476.775H1747.41V465.083H1746.75C1745.53 467.447 1743.82 469.664 1741.6 471.732C1739.42 473.764 1736.66 475.408 1733.34 476.664C1730.05 477.883 1726.19 478.493 1721.76 478.493ZM1726.97 463.754C1730.99 463.754 1734.49 462.959 1737.44 461.371C1740.4 459.745 1742.67 457.603 1744.26 454.943C1745.88 452.283 1746.69 449.384 1746.69 446.244V436.214C1746.07 436.732 1744.99 437.212 1743.48 437.655C1742 438.099 1740.34 438.486 1738.49 438.818C1736.65 439.151 1734.82 439.447 1733.01 439.705C1731.2 439.964 1729.62 440.185 1728.3 440.37C1725.31 440.777 1722.63 441.441 1720.26 442.365C1717.9 443.289 1716.03 444.581 1714.67 446.244C1713.3 447.869 1712.62 449.975 1712.62 452.561C1712.62 456.254 1713.97 459.043 1716.67 460.928C1719.36 462.811 1722.79 463.754 1726.97 463.754ZM1812.21 478.271C1805.53 478.271 1799.54 476.553 1794.26 473.118C1788.97 469.682 1784.8 464.695 1781.73 458.157C1778.67 451.618 1777.14 443.676 1777.14 434.331C1777.14 424.874 1778.69 416.894 1781.79 410.393C1784.93 403.855 1789.16 398.923 1794.47 395.599C1799.8 392.237 1805.73 390.556 1812.26 390.556C1817.26 390.556 1821.36 391.406 1824.56 393.105C1827.78 394.768 1830.33 396.781 1832.21 399.144C1834.1 401.472 1835.56 403.67 1836.59 405.739H1837.42V363.294H1857.54V476.775H1837.81V463.365H1836.59C1835.56 465.435 1834.06 467.632 1832.11 469.96C1830.15 472.25 1827.55 474.207 1824.35 475.833C1821.13 477.458 1817.08 478.271 1812.21 478.271ZM1817.8 461.814C1822.06 461.814 1825.67 460.669 1828.66 458.378C1831.65 456.052 1833.93 452.819 1835.49 448.682C1837.04 444.545 1837.81 439.724 1837.81 434.22C1837.81 428.716 1837.04 423.932 1835.49 419.869C1833.97 415.805 1831.72 412.647 1828.72 410.393C1825.77 408.14 1822.13 407.013 1817.8 407.013C1813.34 407.013 1809.6 408.176 1806.61 410.504C1803.62 412.831 1801.37 416.045 1799.85 420.145C1798.34 424.245 1797.58 428.937 1797.58 434.22C1797.58 439.539 1798.34 444.286 1799.85 448.46C1801.4 452.597 1803.67 455.867 1806.67 458.268C1809.7 460.632 1813.41 461.814 1817.8 461.814ZM1909.79 478.438C1901.3 478.438 1894 476.572 1887.91 472.841C1881.85 469.11 1877.17 463.957 1873.89 457.381C1870.64 450.769 1869.01 443.16 1869.01 434.552C1869.01 425.908 1870.67 418.28 1874 411.667C1877.32 405.018 1882.01 399.847 1888.07 396.153C1894.16 392.422 1901.37 390.556 1909.68 390.556C1916.59 390.556 1922.7 391.831 1928.02 394.379C1933.38 396.891 1937.65 400.456 1940.83 405.074C1944 409.654 1945.81 415.011 1946.25 421.143H1927.08C1926.31 417.043 1924.46 413.625 1921.54 410.892C1918.66 408.122 1914.8 406.736 1909.96 406.736C1905.86 406.736 1902.26 407.844 1899.16 410.061C1896.05 412.24 1893.64 415.38 1891.89 419.48C1890.19 423.581 1889.34 428.494 1889.34 434.22C1889.34 440.019 1890.19 445.006 1891.89 449.181C1893.59 453.317 1895.98 456.513 1899.05 458.767C1902.15 460.983 1905.79 462.091 1909.96 462.091C1912.91 462.091 1915.56 461.537 1917.88 460.428C1920.25 459.283 1922.23 457.64 1923.81 455.498C1925.4 453.355 1926.49 450.751 1927.08 447.685H1946.25C1945.78 453.706 1944 459.043 1940.93 463.698C1937.87 468.315 1933.69 471.936 1928.41 474.558C1923.13 477.144 1916.92 478.438 1909.79 478.438ZM1976.54 426.906V476.775H1956.48V391.664H1975.66V406.126H1976.66C1978.61 401.361 1981.74 397.575 1986.02 394.768C1990.34 391.96 1995.67 390.556 2002.03 390.556C2007.91 390.556 2013.02 391.813 2017.38 394.324C2021.78 396.836 2025.17 400.475 2027.58 405.24C2030.01 410.005 2031.22 415.787 2031.17 422.584V476.775H2011.12V425.686C2011.12 419.998 2009.64 415.546 2006.68 412.333C2003.77 409.119 1999.72 407.511 1994.55 407.511C1991.04 407.511 1987.92 408.287 1985.19 409.839C1982.49 411.353 1980.37 413.552 1978.81 416.433C1977.3 419.314 1976.54 422.805 1976.54 426.906ZM2150.21 363.294H2170.76V437.433C2170.76 445.56 2168.85 452.708 2165.01 458.878C2161.2 465.046 2155.85 469.867 2148.94 473.339C2142.03 476.775 2133.96 478.493 2124.72 478.493C2115.45 478.493 2107.36 476.775 2100.45 473.339C2093.54 469.867 2088.19 465.046 2084.38 458.878C2080.58 452.708 2078.68 445.56 2078.68 437.433V363.294H2099.23V435.716C2099.23 440.444 2100.27 444.655 2102.33 448.349C2104.44 452.043 2107.4 454.943 2111.2 457.048C2115.01 459.118 2119.51 460.152 2124.72 460.152C2129.93 460.152 2134.43 459.118 2138.24 457.048C2142.08 454.943 2145.04 452.043 2147.11 448.349C2149.18 444.655 2150.21 440.444 2150.21 435.716V363.294ZM2207.42 363.294V476.775H2186.87V363.294H2207.42ZM2255.91 476.775V363.294H2275.97V405.739H2276.8C2277.83 403.67 2279.3 401.472 2281.18 399.144C2283.06 396.781 2285.61 394.768 2288.82 393.105C2292.04 391.406 2296.14 390.556 2301.12 390.556C2307.7 390.556 2313.63 392.237 2318.91 395.599C2324.23 398.923 2328.44 403.855 2331.54 410.393C2334.69 416.894 2336.26 424.874 2336.26 434.331C2336.26 443.676 2334.72 451.618 2331.65 458.157C2328.59 464.695 2324.42 469.682 2319.14 473.118C2313.85 476.553 2307.87 478.271 2301.18 478.271C2296.3 478.271 2292.26 477.458 2289.05 475.833C2285.83 474.207 2283.25 472.25 2281.29 469.96C2279.36 467.632 2277.87 465.435 2276.8 463.365H2275.64V476.775H2255.91ZM2275.58 434.22C2275.58 439.724 2276.36 444.545 2277.91 448.682C2279.49 452.819 2281.77 456.052 2284.72 458.378C2287.71 460.669 2291.34 461.814 2295.58 461.814C2300.01 461.814 2303.73 460.632 2306.72 458.268C2309.71 455.867 2311.97 452.597 2313.48 448.46C2315.04 444.286 2315.81 439.539 2315.81 434.22C2315.81 428.937 2315.05 424.245 2313.54 420.145C2312.02 416.045 2309.77 412.831 2306.78 410.504C2303.78 408.176 2300.06 407.013 2295.58 407.013C2291.3 407.013 2287.66 408.14 2284.67 410.393C2281.68 412.647 2279.41 415.805 2277.86 419.869C2276.34 423.932 2275.58 428.716 2275.58 434.22ZM2367.13 363.294V476.775H2347.07V363.294H2367.13ZM2418.64 478.438C2410.32 478.438 2403.12 476.608 2397.02 472.951C2390.93 469.295 2386.2 464.178 2382.84 457.603C2379.51 451.027 2377.85 443.344 2377.85 434.552C2377.85 425.761 2379.51 418.059 2382.84 411.446C2386.2 404.834 2390.93 399.699 2397.02 396.042C2403.12 392.385 2410.32 390.556 2418.64 390.556C2426.95 390.556 2434.15 392.385 2440.25 396.042C2446.34 399.699 2451.05 404.834 2454.38 411.446C2457.74 418.059 2459.41 425.761 2459.41 434.552C2459.41 443.344 2457.74 451.027 2454.38 457.603C2451.05 464.178 2446.34 469.295 2440.25 472.951C2434.15 476.608 2426.95 478.438 2418.64 478.438ZM2418.75 462.368C2423.26 462.368 2427.02 461.131 2430.05 458.656C2433.08 456.143 2435.33 452.782 2436.81 448.571C2438.32 444.36 2439.08 439.669 2439.08 434.497C2439.08 429.288 2438.32 424.578 2436.81 420.367C2435.33 416.119 2433.08 412.739 2430.05 410.227C2427.02 407.715 2423.26 406.459 2418.75 406.459C2414.13 406.459 2410.29 407.715 2407.22 410.227C2404.19 412.739 2401.92 416.119 2400.41 420.367C2398.93 424.578 2398.19 429.288 2398.19 434.497C2398.19 439.669 2398.93 444.36 2400.41 448.571C2401.92 452.782 2404.19 456.143 2407.22 458.656C2410.29 461.131 2414.13 462.368 2418.75 462.368ZM2507.32 478.438C2498.83 478.438 2491.53 476.572 2485.44 472.841C2479.38 469.11 2474.7 463.957 2471.42 457.381C2468.17 450.769 2466.55 443.16 2466.55 434.552C2466.55 425.908 2468.2 418.28 2471.53 411.667C2474.85 405.018 2479.55 399.847 2485.6 396.153C2491.7 392.422 2498.91 390.556 2507.21 390.556C2514.12 390.556 2520.23 391.831 2525.55 394.379C2530.91 396.891 2535.18 400.456 2538.36 405.074C2541.53 409.654 2543.34 415.011 2543.78 421.143H2524.61C2523.84 417.043 2521.99 413.625 2519.07 410.892C2516.19 408.122 2512.34 406.736 2507.49 406.736C2503.39 406.736 2499.79 407.844 2496.69 410.061C2493.58 412.24 2491.17 415.38 2489.42 419.48C2487.72 423.581 2486.88 428.494 2486.88 434.22C2486.88 440.019 2487.72 445.006 2489.42 449.181C2491.13 453.317 2493.51 456.513 2496.58 458.767C2499.68 460.983 2503.32 462.091 2507.49 462.091C2510.45 462.091 2513.09 461.537 2515.41 460.428C2517.78 459.283 2519.76 457.64 2521.34 455.498C2522.94 453.355 2524.02 450.751 2524.61 447.685H2543.78C2543.31 453.706 2541.53 459.043 2538.46 463.698C2535.4 468.315 2531.22 471.936 2525.94 474.558C2520.66 477.144 2514.46 478.438 2507.32 478.438ZM2572.3 450.067L2572.24 425.853H2575.46L2606.04 391.664H2629.48L2591.86 433.555H2587.7L2572.3 450.067ZM2554.01 476.775V363.294H2574.07V476.775H2554.01ZM2607.43 476.775L2579.72 438.043L2593.25 423.913L2631.42 476.775H2607.43ZM2703.88 414.161L2685.6 416.156C2685.08 414.309 2684.17 412.573 2682.88 410.947C2681.63 409.322 2679.93 408.011 2677.78 407.013C2675.63 406.016 2673.02 405.517 2669.91 405.517C2665.74 405.517 2662.22 406.422 2659.38 408.232C2656.57 410.042 2655.19 412.388 2655.23 415.269C2655.19 417.744 2656.1 419.758 2657.94 421.309C2659.82 422.86 2662.93 424.135 2667.25 425.132L2681.77 428.236C2689.83 429.972 2695.81 432.723 2699.73 436.492C2703.68 440.259 2705.67 445.191 2705.71 451.286C2705.67 456.643 2704.1 461.371 2701 465.471C2697.93 469.535 2693.67 472.711 2688.2 475.002C2682.73 477.292 2676.45 478.438 2669.36 478.438C2658.94 478.438 2650.56 476.257 2644.2 471.899C2637.85 467.503 2634.06 461.389 2632.85 453.558L2652.4 451.674C2653.29 455.516 2655.18 458.416 2658.05 460.374C2660.93 462.331 2664.69 463.31 2669.3 463.31C2674.07 463.31 2677.89 462.331 2680.78 460.374C2683.69 458.416 2685.15 455.996 2685.15 453.115C2685.15 450.676 2684.21 448.663 2682.33 447.075C2680.48 445.486 2677.59 444.267 2673.68 443.418L2659.16 440.37C2651 438.671 2644.96 435.808 2641.05 431.782C2637.13 427.718 2635.19 422.584 2635.22 416.378C2635.19 411.132 2636.61 406.588 2639.5 402.746C2642.41 398.868 2646.46 395.876 2651.62 393.77C2656.83 391.628 2662.84 390.556 2669.64 390.556C2679.61 390.556 2687.46 392.68 2693.18 396.929C2698.95 401.176 2702.51 406.921 2703.88 414.161Z" fill="#9A90B5"/>
</g>
<defs>
<clipPath id="clip0_2187_27">
<rect width="2713.29" height="511.451" fill="white"/>
</clipPath>
</defs>
</svg>
