<svg width="313" height="59" viewBox="0 0 313 59" fill="none" xmlns="http://www.w3.org/2000/svg">
<path d="M30.1256 2.90738L28.1238 1.7597V11.2753L30.1256 12.4372V2.90738Z" fill="white"/>
<path d="M34.1578 5.25285L32.1536 4.09326V13.621L34.1578 14.7711V5.25285Z" fill="white"/>
<path d="M38.1522 7.58665L36.1504 6.43896V15.9545L38.1522 17.1046V7.58665Z" fill="white"/>
<path d="M3.89844 16.7729L5.90029 17.923V11.1179L3.89844 12.2656V16.7729Z" fill="white"/>
<path d="M1.8945 15.6129V13.4511L0 14.5367L1.8945 15.6129Z" fill="white"/>
<path d="M50.2123 14.5627L48.2199 13.4126V15.7223L46.2157 16.87V12.265L44.2257 11.1173V17.9941L42.2215 19.1442V9.91977L40.1815 8.73392V18.2637L41.9781 19.3136V38.5921L41.8803 38.6517L40.1815 37.6758V39.6419L38.1533 40.7896V36.4542L36.1515 35.2683V41.9512L34.1592 43.1347V34.0823L32.1549 32.8989V44.2851L30.1268 45.4327V31.7132L28.1249 30.5274V46.5802L26.1207 47.778V29.3434L25.1424 28.6944L25.1806 9.55134L26.1207 10.1264V0.61082L25.0708 0L24.2262 0.474816V10.0285L22.2004 11.1762V1.66067L20.1962 2.80835V12.3259L18.1919 13.4855V3.9939L16.202 5.14158V14.6332L14.162 15.7833V6.30336L12.1696 7.48683V16.9423L10.1654 18.1282V8.634L7.92969 9.95347V19.0679L8.2351 19.2397L8.30906 38.6495L10.1654 39.7376V37.5758L12.1696 36.39V40.9234L14.162 42.083V35.2041L16.202 33.9825V43.2308L18.192 44.4166V32.7988L20.1962 31.613V45.5641L22.2005 46.7261V30.4152L24.2262 29.2317V47.9096L25.1424 48.4488V48.4106V58L50.2481 43.5002L50.2839 14.56L50.2123 14.5627Z" fill="white"/>
<path d="M82.3438 11.9858C82.2377 11.0445 81.8002 10.3153 81.0312 9.79829C80.2623 9.27462 79.2945 9.01278 78.1278 9.01278C77.2926 9.01278 76.5701 9.14536 75.9602 9.41051C75.3504 9.66903 74.8764 10.027 74.5384 10.4844C74.2069 10.9351 74.0412 11.4489 74.0412 12.0256C74.0412 12.5095 74.1539 12.9271 74.3793 13.2784C74.6113 13.6297 74.9129 13.9247 75.2841 14.1634C75.6619 14.3954 76.0663 14.5909 76.4972 14.75C76.928 14.9025 77.3423 15.0284 77.7401 15.1278L79.7287 15.6449C80.3783 15.804 81.0445 16.0194 81.7273 16.2912C82.41 16.563 83.0431 16.9209 83.6264 17.3651C84.2098 17.8092 84.6804 18.3594 85.0384 19.0156C85.4029 19.6719 85.5852 20.4574 85.5852 21.3722C85.5852 22.5256 85.2869 23.5497 84.6903 24.4446C84.1004 25.3395 83.242 26.0455 82.1151 26.5625C80.9948 27.0795 79.6392 27.3381 78.0483 27.3381C76.5237 27.3381 75.2045 27.0961 74.0909 26.6122C72.9773 26.1283 72.1056 25.4422 71.4759 24.554C70.8461 23.6591 70.4981 22.5985 70.4318 21.3722H73.5142C73.5739 22.108 73.8125 22.7211 74.2301 23.2116C74.6544 23.6955 75.1946 24.0568 75.8509 24.2955C76.5137 24.5275 77.2396 24.6435 78.0284 24.6435C78.8968 24.6435 79.669 24.5076 80.3452 24.2358C81.0279 23.9574 81.5649 23.5729 81.956 23.0824C82.3471 22.5852 82.5426 22.0052 82.5426 21.3423C82.5426 20.7391 82.3703 20.2453 82.0256 19.8608C81.6875 19.4763 81.2268 19.1581 80.6435 18.9062C80.0668 18.6544 79.4138 18.4323 78.6847 18.2401L76.2784 17.5838C74.6477 17.1397 73.3551 16.4867 72.4006 15.625C71.4527 14.7633 70.9787 13.6231 70.9787 12.2045C70.9787 11.0312 71.2969 10.0071 71.9332 9.1321C72.5696 8.2571 73.4313 7.57765 74.5185 7.09375C75.6056 6.60322 76.8319 6.35795 78.1974 6.35795C79.5762 6.35795 80.7926 6.5999 81.8466 7.08381C82.9072 7.56771 83.7424 8.2339 84.3523 9.08239C84.9621 9.92424 85.2803 10.892 85.3068 11.9858H82.3438ZM91.1511 17.9318V27H88.1781V6.63636H91.1113V14.2131H91.3003C91.6582 13.3911 92.2051 12.7382 92.9409 12.2543C93.6767 11.7704 94.6379 11.5284 95.8244 11.5284C96.8718 11.5284 97.7865 11.7438 98.5687 12.1747C99.3576 12.6056 99.9674 13.2486 100.398 14.1037C100.836 14.9522 101.055 16.0128 101.055 17.2855V27H98.0815V17.6435C98.0815 16.5232 97.7932 15.6548 97.2165 15.0384C96.6398 14.4152 95.8377 14.1037 94.8102 14.1037C94.1076 14.1037 93.4778 14.2528 92.921 14.5511C92.3708 14.8494 91.9366 15.2869 91.6185 15.8636C91.3069 16.4337 91.1511 17.1231 91.1511 17.9318ZM108.626 27.3381C107.659 27.3381 106.784 27.1591 106.001 26.8011C105.219 26.4366 104.599 25.9096 104.142 25.2202C103.691 24.5308 103.466 23.6856 103.466 22.6847C103.466 21.8229 103.632 21.1136 103.963 20.5568C104.295 20 104.742 19.5592 105.305 19.2344C105.869 18.9096 106.499 18.6643 107.195 18.4986C107.891 18.3329 108.6 18.2069 109.322 18.1207C110.237 18.0147 110.98 17.9285 111.55 17.8622C112.12 17.7893 112.534 17.6733 112.793 17.5142C113.051 17.3551 113.18 17.0966 113.18 16.7386V16.669C113.18 15.8007 112.935 15.1278 112.445 14.6506C111.961 14.1733 111.238 13.9347 110.277 13.9347C109.276 13.9347 108.487 14.1567 107.911 14.6009C107.34 15.0384 106.946 15.5256 106.727 16.0625L103.933 15.4261C104.265 14.4981 104.749 13.7491 105.385 13.179C106.028 12.6023 106.767 12.1847 107.602 11.9261C108.438 11.661 109.316 11.5284 110.237 11.5284C110.847 11.5284 111.493 11.6013 112.176 11.7472C112.866 11.8864 113.509 12.1449 114.105 12.5227C114.708 12.9006 115.202 13.4408 115.587 14.1435C115.971 14.8395 116.163 15.7443 116.163 16.858V27H113.26V24.9119H113.141C112.948 25.2964 112.66 25.6742 112.276 26.0455C111.891 26.4167 111.397 26.7249 110.794 26.9702C110.191 27.2154 109.468 27.3381 108.626 27.3381ZM109.273 24.9517C110.095 24.9517 110.797 24.7893 111.381 24.4645C111.971 24.1397 112.418 23.7154 112.723 23.1918C113.035 22.6615 113.19 22.0947 113.19 21.4915V19.5227C113.084 19.6288 112.879 19.7282 112.574 19.821C112.276 19.9072 111.934 19.9834 111.55 20.0497C111.165 20.1094 110.791 20.1657 110.426 20.2188C110.062 20.2652 109.757 20.3049 109.511 20.3381C108.935 20.411 108.408 20.5336 107.93 20.706C107.46 20.8783 107.082 21.1269 106.797 21.4517C106.519 21.7699 106.379 22.1941 106.379 22.7244C106.379 23.4602 106.651 24.017 107.195 24.3949C107.738 24.7661 108.431 24.9517 109.273 24.9517ZM125.001 27.2983C123.768 27.2983 122.667 26.9834 121.699 26.3537C120.738 25.7173 119.983 24.8125 119.432 23.6392C118.889 22.4593 118.617 21.044 118.617 19.3935C118.617 17.7429 118.892 16.331 119.442 15.1577C119.999 13.9844 120.761 13.0862 121.729 12.4631C122.697 11.84 123.794 11.5284 125.02 11.5284C125.968 11.5284 126.731 11.6875 127.307 12.0057C127.891 12.3172 128.342 12.6818 128.66 13.0994C128.984 13.517 129.236 13.8849 129.415 14.2031H129.594V6.63636H132.567V27H129.664V24.6236H129.415C129.236 24.9484 128.978 25.3196 128.64 25.7372C128.308 26.1548 127.851 26.5194 127.268 26.831C126.684 27.1425 125.929 27.2983 125.001 27.2983ZM125.657 24.7628C126.512 24.7628 127.234 24.5374 127.824 24.0866C128.421 23.6293 128.872 22.9962 129.177 22.1875C129.488 21.3788 129.644 20.4375 129.644 19.3636C129.644 18.303 129.492 17.375 129.187 16.5795C128.882 15.7841 128.434 15.1643 127.844 14.7202C127.254 14.276 126.525 14.054 125.657 14.054C124.762 14.054 124.016 14.286 123.42 14.75C122.823 15.214 122.372 15.8471 122.067 16.6491C121.769 17.4512 121.62 18.3561 121.62 19.3636C121.62 20.3845 121.772 21.3026 122.077 22.1179C122.382 22.9332 122.833 23.5795 123.43 24.0568C124.033 24.5275 124.775 24.7628 125.657 24.7628ZM142.404 27.3082C140.926 27.3082 139.653 26.9735 138.586 26.304C137.525 25.6278 136.71 24.6965 136.14 23.5099C135.57 22.3234 135.285 20.9645 135.285 19.4332C135.285 17.8821 135.576 16.5133 136.16 15.3267C136.743 14.1335 137.565 13.2022 138.625 12.5327C139.686 11.8632 140.936 11.5284 142.374 11.5284C143.534 11.5284 144.568 11.7438 145.476 12.1747C146.384 12.599 147.117 13.1955 147.674 13.9645C148.237 14.7334 148.572 15.6316 148.678 16.6591H145.785C145.625 15.9432 145.261 15.3267 144.691 14.8097C144.127 14.2926 143.372 14.0341 142.424 14.0341C141.595 14.0341 140.869 14.2528 140.246 14.6903C139.63 15.1212 139.149 15.7377 138.804 16.5398C138.46 17.3352 138.287 18.2765 138.287 19.3636C138.287 20.4773 138.456 21.4384 138.794 22.2472C139.133 23.0559 139.61 23.6823 140.226 24.1264C140.849 24.5705 141.582 24.7926 142.424 24.7926C142.987 24.7926 143.498 24.6899 143.955 24.4844C144.419 24.2723 144.807 23.9706 145.118 23.5795C145.437 23.1884 145.659 22.7178 145.785 22.1676H148.678C148.572 23.1553 148.25 24.0369 147.714 24.8125C147.177 25.5881 146.457 26.1979 145.556 26.642C144.661 27.0862 143.61 27.3082 142.404 27.3082ZM153.99 17.9318V27H151.017V11.7273H153.871V14.2131H154.06C154.411 13.4044 154.961 12.7547 155.711 12.2642C156.466 11.7737 157.417 11.5284 158.564 11.5284C159.605 11.5284 160.516 11.7472 161.299 12.1847C162.081 12.6155 162.687 13.2585 163.118 14.1136C163.549 14.9687 163.764 16.026 163.764 17.2855V27H160.791V17.6435C160.791 16.5365 160.503 15.6714 159.926 15.0483C159.35 14.4186 158.558 14.1037 157.55 14.1037C156.861 14.1037 156.247 14.2528 155.711 14.5511C155.18 14.8494 154.759 15.2869 154.448 15.8636C154.143 16.4337 153.99 17.1231 153.99 17.9318ZM167.15 27V6.63636H170.123V14.2031H170.302C170.475 13.8849 170.723 13.517 171.048 13.0994C171.373 12.6818 171.824 12.3172 172.4 12.0057C172.977 11.6875 173.739 11.5284 174.687 11.5284C175.92 11.5284 177.021 11.84 177.988 12.4631C178.956 13.0862 179.715 13.9844 180.265 15.1577C180.822 16.331 181.101 17.7429 181.101 19.3935C181.101 21.044 180.826 22.4593 180.275 23.6392C179.725 24.8125 178.969 25.7173 178.008 26.3537C177.047 26.9834 175.95 27.2983 174.717 27.2983C173.789 27.2983 173.03 27.1425 172.44 26.831C171.857 26.5194 171.399 26.1548 171.068 25.7372C170.737 25.3196 170.481 24.9484 170.302 24.6236H170.054V27H167.15ZM170.064 19.3636C170.064 20.4375 170.219 21.3788 170.531 22.1875C170.843 22.9962 171.293 23.6293 171.883 24.0866C172.473 24.5374 173.196 24.7628 174.051 24.7628C174.939 24.7628 175.682 24.5275 176.278 24.0568C176.875 23.5795 177.326 22.9332 177.63 22.1179C177.942 21.3026 178.098 20.3845 178.098 19.3636C178.098 18.3561 177.945 17.4512 177.64 16.6491C177.342 15.8471 176.891 15.214 176.288 14.75C175.692 14.286 174.946 14.054 174.051 14.054C173.189 14.054 172.46 14.276 171.863 14.7202C171.273 15.1643 170.826 15.7841 170.521 16.5795C170.216 17.375 170.064 18.303 170.064 19.3636ZM186.572 6.63636V27H183.599V6.63636H186.572ZM196.165 27.3082C194.733 27.3082 193.484 26.9801 192.416 26.3239C191.349 25.6676 190.521 24.7495 189.931 23.5696C189.341 22.3897 189.046 21.0109 189.046 19.4332C189.046 17.849 189.341 16.4635 189.931 15.277C190.521 14.0904 191.349 13.169 192.416 12.5128C193.484 11.8565 194.733 11.5284 196.165 11.5284C197.597 11.5284 198.846 11.8565 199.914 12.5128C200.981 13.169 201.809 14.0904 202.399 15.277C202.989 16.4635 203.284 17.849 203.284 19.4332C203.284 21.0109 202.989 22.3897 202.399 23.5696C201.809 24.7495 200.981 25.6676 199.914 26.3239C198.846 26.9801 197.597 27.3082 196.165 27.3082ZM196.175 24.8125C197.103 24.8125 197.872 24.5672 198.482 24.0767C199.092 23.5862 199.542 22.9332 199.834 22.1179C200.132 21.3026 200.281 20.4044 200.281 19.4233C200.281 18.4489 200.132 17.554 199.834 16.7386C199.542 15.9167 199.092 15.2571 198.482 14.7599C197.872 14.2628 197.103 14.0142 196.175 14.0142C195.24 14.0142 194.465 14.2628 193.848 14.7599C193.238 15.2571 192.784 15.9167 192.486 16.7386C192.194 17.554 192.048 18.4489 192.048 19.4233C192.048 20.4044 192.194 21.3026 192.486 22.1179C192.784 22.9332 193.238 23.5862 193.848 24.0767C194.465 24.5672 195.24 24.8125 196.175 24.8125ZM212.196 27.3082C210.718 27.3082 209.445 26.9735 208.378 26.304C207.317 25.6278 206.502 24.6965 205.932 23.5099C205.362 22.3234 205.077 20.9645 205.077 19.4332C205.077 17.8821 205.368 16.5133 205.952 15.3267C206.535 14.1335 207.357 13.2022 208.418 12.5327C209.478 11.8632 210.728 11.5284 212.166 11.5284C213.326 11.5284 214.36 11.7438 215.268 12.1747C216.177 12.599 216.909 13.1955 217.466 13.9645C218.029 14.7334 218.364 15.6316 218.47 16.6591H215.577C215.418 15.9432 215.053 15.3267 214.483 14.8097C213.92 14.2926 213.164 14.0341 212.216 14.0341C211.387 14.0341 210.661 14.2528 210.038 14.6903C209.422 15.1212 208.941 15.7377 208.597 16.5398C208.252 17.3352 208.08 18.2765 208.08 19.3636C208.08 20.4773 208.249 21.4384 208.587 22.2472C208.925 23.0559 209.402 23.6823 210.018 24.1264C210.642 24.5705 211.374 24.7926 212.216 24.7926C212.779 24.7926 213.29 24.6899 213.747 24.4844C214.211 24.2723 214.599 23.9706 214.911 23.5795C215.229 23.1884 215.451 22.7178 215.577 22.1676H218.47C218.364 23.1553 218.043 24.0369 217.506 24.8125C216.969 25.5881 216.25 26.1979 215.348 26.642C214.453 27.0862 213.402 27.3082 212.196 27.3082ZM223.544 21.8196L223.524 18.1903H224.041L230.126 11.7273H233.686L226.746 19.0852H226.278L223.544 21.8196ZM220.81 27V6.63636H223.783V27H220.81ZM230.454 27L224.986 19.7415L227.034 17.6634L234.104 27H230.454ZM247 15.456L244.305 15.9332C244.193 15.5885 244.014 15.2604 243.769 14.9489C243.53 14.6373 243.205 14.3821 242.794 14.1832C242.383 13.9844 241.869 13.8849 241.253 13.8849C240.411 13.8849 239.708 14.0739 239.145 14.4517C238.581 14.8229 238.3 15.3035 238.3 15.8935C238.3 16.4039 238.489 16.8149 238.867 17.1264C239.244 17.438 239.854 17.6932 240.696 17.892L243.122 18.4489C244.528 18.7737 245.575 19.2741 246.264 19.9503C246.954 20.6264 247.298 21.5047 247.298 22.5852C247.298 23.5 247.033 24.3153 246.503 25.0312C245.979 25.7405 245.247 26.2973 244.305 26.7017C243.371 27.1061 242.287 27.3082 241.054 27.3082C239.344 27.3082 237.948 26.9437 236.868 26.2145C235.787 25.4787 235.125 24.4347 234.879 23.0824L237.753 22.6449C237.932 23.3939 238.3 23.9607 238.857 24.3452C239.413 24.723 240.139 24.9119 241.034 24.9119C242.009 24.9119 242.787 24.7098 243.371 24.3054C243.954 23.8944 244.246 23.3939 244.246 22.804C244.246 22.3267 244.067 21.9257 243.709 21.6009C243.358 21.276 242.817 21.0308 242.088 20.8651L239.503 20.2983C238.078 19.9735 237.024 19.4564 236.341 18.7472C235.665 18.0379 235.327 17.1397 235.327 16.0526C235.327 15.151 235.579 14.3622 236.082 13.6861C236.586 13.0099 237.282 12.483 238.171 12.1051C239.059 11.7206 240.076 11.5284 241.223 11.5284C242.874 11.5284 244.173 11.8864 245.121 12.6023C246.069 13.3116 246.695 14.2628 247 15.456ZM251.686 27.1889C251.142 27.1889 250.675 26.9967 250.284 26.6122C249.893 26.2211 249.697 25.7505 249.697 25.2003C249.697 24.6567 249.893 24.1927 250.284 23.8082C250.675 23.4171 251.142 23.2216 251.686 23.2216C252.23 23.2216 252.697 23.4171 253.088 23.8082C253.479 24.1927 253.675 24.6567 253.675 25.2003C253.675 25.5649 253.582 25.8996 253.396 26.2045C253.217 26.5028 252.979 26.7415 252.68 26.9205C252.382 27.0994 252.051 27.1889 251.686 27.1889ZM263.25 27.3082C261.772 27.3082 260.499 26.9735 259.432 26.304C258.371 25.6278 257.556 24.6965 256.986 23.5099C256.416 22.3234 256.131 20.9645 256.131 19.4332C256.131 17.8821 256.422 16.5133 257.006 15.3267C257.589 14.1335 258.411 13.2022 259.472 12.5327C260.532 11.8632 261.782 11.5284 263.22 11.5284C264.38 11.5284 265.414 11.7438 266.323 12.1747C267.231 12.599 267.963 13.1955 268.52 13.9645C269.083 14.7334 269.418 15.6316 269.524 16.6591H266.631C266.472 15.9432 266.107 15.3267 265.537 14.8097C264.974 14.2926 264.218 14.0341 263.27 14.0341C262.441 14.0341 261.716 14.2528 261.092 14.6903C260.476 15.1212 259.995 15.7377 259.651 16.5398C259.306 17.3352 259.134 18.2765 259.134 19.3636C259.134 20.4773 259.303 21.4384 259.641 22.2472C259.979 23.0559 260.456 23.6823 261.073 24.1264C261.696 24.5705 262.428 24.7926 263.27 24.7926C263.833 24.7926 264.344 24.6899 264.801 24.4844C265.265 24.2723 265.653 23.9706 265.965 23.5795C266.283 23.1884 266.505 22.7178 266.631 22.1676H269.524C269.418 23.1553 269.097 24.0369 268.56 24.8125C268.023 25.5881 267.304 26.1979 266.402 26.642C265.507 27.0862 264.457 27.3082 263.25 27.3082ZM278.297 27.3082C276.865 27.3082 275.615 26.9801 274.548 26.3239C273.481 25.6676 272.652 24.7495 272.062 23.5696C271.472 22.3897 271.178 21.0109 271.178 19.4332C271.178 17.849 271.472 16.4635 272.062 15.277C272.652 14.0904 273.481 13.169 274.548 12.5128C275.615 11.8565 276.865 11.5284 278.297 11.5284C279.729 11.5284 280.978 11.8565 282.045 12.5128C283.113 13.169 283.941 14.0904 284.531 15.277C285.121 16.4635 285.416 17.849 285.416 19.4332C285.416 21.0109 285.121 22.3897 284.531 23.5696C283.941 24.7495 283.113 25.6676 282.045 26.3239C280.978 26.9801 279.729 27.3082 278.297 27.3082ZM278.307 24.8125C279.235 24.8125 280.004 24.5672 280.614 24.0767C281.223 23.5862 281.674 22.9332 281.966 22.1179C282.264 21.3026 282.413 20.4044 282.413 19.4233C282.413 18.4489 282.264 17.554 281.966 16.7386C281.674 15.9167 281.223 15.2571 280.614 14.7599C280.004 14.2628 279.235 14.0142 278.307 14.0142C277.372 14.0142 276.597 14.2628 275.98 14.7599C275.37 15.2571 274.916 15.9167 274.618 16.7386C274.326 17.554 274.18 18.4489 274.18 19.4233C274.18 20.4044 274.326 21.3026 274.618 22.1179C274.916 22.9332 275.37 23.5862 275.98 24.0767C276.597 24.5672 277.372 24.8125 278.307 24.8125ZM287.895 27V11.7273H290.748V14.2131H290.937C291.255 13.3712 291.776 12.715 292.498 12.2443C293.221 11.767 294.086 11.5284 295.094 11.5284C296.114 11.5284 296.969 11.767 297.659 12.2443C298.355 12.7216 298.869 13.3778 299.2 14.2131H299.359C299.724 13.3977 300.304 12.7481 301.099 12.2642C301.895 11.7737 302.843 11.5284 303.943 11.5284C305.328 11.5284 306.459 11.9626 307.334 12.831C308.215 13.6993 308.656 15.0085 308.656 16.7585V27H305.683V17.0369C305.683 16.0028 305.401 15.2538 304.838 14.7898C304.274 14.3258 303.602 14.0938 302.819 14.0938C301.852 14.0938 301.099 14.392 300.562 14.9886C300.025 15.5786 299.757 16.3376 299.757 17.2656V27H296.794V16.848C296.794 16.0194 296.535 15.3532 296.018 14.8494C295.501 14.3456 294.828 14.0938 294 14.0938C293.436 14.0938 292.916 14.2429 292.439 14.5412C291.968 14.8329 291.587 15.2405 291.295 15.7642C291.01 16.2879 290.868 16.8944 290.868 17.5838V27H287.895Z" fill="white"/>
<path d="M70.1634 55V53.2869L74.7081 48.8317C75.1428 48.3928 75.505 48.0028 75.7947 47.6619C76.0845 47.321 76.3018 46.9908 76.4467 46.6712C76.5916 46.3516 76.6641 46.0107 76.6641 45.6484C76.6641 45.2351 76.5703 44.8814 76.3828 44.5874C76.1953 44.2891 75.9375 44.0589 75.6094 43.897C75.2812 43.7351 74.9084 43.6541 74.4908 43.6541C74.0604 43.6541 73.6832 43.7436 73.3594 43.9226C73.0355 44.0973 72.7841 44.3466 72.6051 44.6705C72.4304 44.9943 72.343 45.38 72.343 45.8274H70.0866C70.0866 44.9964 70.2763 44.2741 70.6555 43.6605C71.0348 43.0469 71.5568 42.5717 72.2216 42.2351C72.8906 41.8984 73.6577 41.7301 74.5227 41.7301C75.4006 41.7301 76.1719 41.8942 76.8366 42.2223C77.5014 42.5504 78.017 43 78.3835 43.571C78.7543 44.142 78.9396 44.794 78.9396 45.527C78.9396 46.017 78.8459 46.4986 78.6584 46.9716C78.4709 47.4446 78.1406 47.9687 77.6676 48.544C77.1989 49.1193 76.5405 49.8161 75.6925 50.6342L73.4361 52.929V53.0185H79.1378V55H70.1634ZM85.4618 55.2493C84.4093 55.2493 83.5059 54.983 82.7516 54.4503C82.0016 53.9134 81.4242 53.1399 81.0193 52.13C80.6188 51.1158 80.4185 49.8949 80.4185 48.4673C80.4228 47.0398 80.6252 45.8253 81.0257 44.8239C81.4306 43.8182 82.008 43.0511 82.758 42.5227C83.5122 41.9943 84.4135 41.7301 85.4618 41.7301C86.5101 41.7301 87.4114 41.9943 88.1657 42.5227C88.9199 43.0511 89.4973 43.8182 89.8979 44.8239C90.3027 45.8295 90.5051 47.044 90.5051 48.4673C90.5051 49.8991 90.3027 51.1222 89.8979 52.1364C89.4973 53.1463 88.9199 53.9176 88.1657 54.4503C87.4157 54.983 86.5144 55.2493 85.4618 55.2493ZM85.4618 53.2486C86.28 53.2486 86.9256 52.8459 87.3986 52.0405C87.8759 51.2308 88.1145 50.0398 88.1145 48.4673C88.1145 47.4276 88.0059 46.554 87.7885 45.8466C87.5712 45.1392 87.2644 44.6065 86.8681 44.2486C86.4718 43.8864 86.003 43.7053 85.4618 43.7053C84.6479 43.7053 84.0044 44.1101 83.5314 44.9197C83.0584 45.7251 82.8198 46.9077 82.8155 48.4673C82.8112 49.5114 82.9157 50.3892 83.1287 51.1009C83.3461 51.8125 83.6529 52.3494 84.0492 52.7116C84.4455 53.0696 84.9164 53.2486 85.4618 53.2486ZM96.7477 55.2493C95.6951 55.2493 94.7917 54.983 94.0374 54.4503C93.2874 53.9134 92.71 53.1399 92.3052 52.13C91.9046 51.1158 91.7044 49.8949 91.7044 48.4673C91.7086 47.0398 91.911 45.8253 92.3116 44.8239C92.7164 43.8182 93.2938 43.0511 94.0438 42.5227C94.7981 41.9943 95.6994 41.7301 96.7477 41.7301C97.796 41.7301 98.6973 41.9943 99.4515 42.5227C100.206 43.0511 100.783 43.8182 101.184 44.8239C101.589 45.8295 101.791 47.044 101.791 48.4673C101.791 49.8991 101.589 51.1222 101.184 52.1364C100.783 53.1463 100.206 53.9176 99.4515 54.4503C98.7015 54.983 97.8002 55.2493 96.7477 55.2493ZM96.7477 53.2486C97.5659 53.2486 98.2115 52.8459 98.6845 52.0405C99.1617 51.2308 99.4004 50.0398 99.4004 48.4673C99.4004 47.4276 99.2917 46.554 99.0744 45.8466C98.8571 45.1392 98.5502 44.6065 98.1539 44.2486C97.7576 43.8864 97.2889 43.7053 96.7477 43.7053C95.9338 43.7053 95.2903 44.1101 94.8173 44.9197C94.3443 45.7251 94.1056 46.9077 94.1014 48.4673C94.0971 49.5114 94.2015 50.3892 94.4146 51.1009C94.6319 51.8125 94.9387 52.3494 95.335 52.7116C95.7313 53.0696 96.2022 53.2486 96.7477 53.2486ZM108.034 55.2493C106.981 55.2493 106.078 54.983 105.323 54.4503C104.573 53.9134 103.996 53.1399 103.591 52.13C103.19 51.1158 102.99 49.8949 102.99 48.4673C102.994 47.0398 103.197 45.8253 103.597 44.8239C104.002 43.8182 104.58 43.0511 105.33 42.5227C106.084 41.9943 106.985 41.7301 108.034 41.7301C109.082 41.7301 109.983 41.9943 110.737 42.5227C111.492 43.0511 112.069 43.8182 112.47 44.8239C112.874 45.8295 113.077 47.044 113.077 48.4673C113.077 49.8991 112.874 51.1222 112.47 52.1364C112.069 53.1463 111.492 53.9176 110.737 54.4503C109.987 54.983 109.086 55.2493 108.034 55.2493ZM108.034 53.2486C108.852 53.2486 109.497 52.8459 109.97 52.0405C110.448 51.2308 110.686 50.0398 110.686 48.4673C110.686 47.4276 110.578 46.554 110.36 45.8466C110.143 45.1392 109.836 44.6065 109.44 44.2486C109.043 43.8864 108.575 43.7053 108.034 43.7053C107.22 43.7053 106.576 44.1101 106.103 44.9197C105.63 45.7251 105.391 46.9077 105.387 48.4673C105.383 49.5114 105.487 50.3892 105.7 51.1009C105.918 51.8125 106.225 52.3494 106.621 52.7116C107.017 53.0696 107.488 53.2486 108.034 53.2486ZM118.367 52.9034V44.0568H120.374V52.9034H118.367ZM114.947 49.4837V47.4766H123.794V49.4837H114.947ZM133.989 55.1918C133.005 55.1918 132.154 54.9872 131.439 54.5781C130.727 54.1648 130.179 53.581 129.796 52.8267C129.412 52.0682 129.22 51.1754 129.22 50.1484C129.22 49.1385 129.412 48.2521 129.796 47.4893C130.184 46.7223 130.725 46.1257 131.419 45.6996C132.114 45.2692 132.93 45.054 133.868 45.054C134.473 45.054 135.044 45.152 135.581 45.348C136.122 45.5398 136.599 45.8381 137.012 46.2429C137.43 46.6477 137.758 47.1634 137.997 47.7898C138.235 48.4119 138.355 49.1534 138.355 50.0142V50.7237H130.307V49.1641H136.137C136.132 48.7209 136.037 48.3267 135.849 47.9815C135.662 47.6321 135.399 47.3572 135.063 47.157C134.73 46.9567 134.343 46.8565 133.899 46.8565C133.426 46.8565 133.011 46.9716 132.653 47.2017C132.295 47.4276 132.016 47.7259 131.816 48.0966C131.62 48.4631 131.519 48.8658 131.515 49.3047V50.6662C131.515 51.2372 131.62 51.7273 131.828 52.1364C132.037 52.5412 132.329 52.8523 132.704 53.0696C133.079 53.2827 133.518 53.3892 134.021 53.3892C134.358 53.3892 134.662 53.3423 134.935 53.2486C135.208 53.1506 135.444 53.0078 135.644 52.8203C135.845 52.6328 135.996 52.4006 136.098 52.1236L138.259 52.3665C138.122 52.9375 137.863 53.4361 137.479 53.8622C137.1 54.2841 136.614 54.6122 136.022 54.8466C135.429 55.0767 134.752 55.1918 133.989 55.1918ZM141.273 45.1818L143.255 48.8061L145.268 45.1818H147.717L144.757 50.0909L147.768 55H145.332L143.255 51.4652L141.197 55H138.742L141.734 50.0909L138.819 45.1818H141.273ZM153.689 45.1818V46.9716H148.045V45.1818H153.689ZM149.438 42.8295H151.752V52.0469C151.752 52.358 151.799 52.5966 151.893 52.7628C151.991 52.9247 152.119 53.0355 152.276 53.0952C152.434 53.1548 152.609 53.1847 152.801 53.1847C152.945 53.1847 153.078 53.174 153.197 53.1527C153.32 53.1314 153.414 53.1122 153.478 53.0952L153.868 54.9041C153.744 54.9467 153.568 54.9936 153.337 55.0447C153.112 55.0959 152.835 55.1257 152.507 55.1342C151.927 55.1513 151.405 55.0639 150.94 54.8722C150.476 54.6761 150.107 54.3736 149.835 53.9645C149.566 53.5554 149.434 53.044 149.438 52.4304V42.8295ZM154.904 55V45.1818H157.148V46.8182H157.25C157.429 46.2514 157.736 45.8146 158.171 45.5078C158.609 45.1967 159.11 45.0412 159.673 45.0412C159.801 45.0412 159.943 45.0476 160.101 45.0604C160.263 45.0689 160.397 45.0838 160.504 45.1051V47.2337C160.406 47.1996 160.25 47.1697 160.037 47.1442C159.828 47.1143 159.626 47.0994 159.43 47.0994C159.008 47.0994 158.629 47.1911 158.292 47.3743C157.96 47.5533 157.698 47.8026 157.506 48.1222C157.314 48.4418 157.218 48.8104 157.218 49.228V55H154.904ZM163.97 55.1982C163.348 55.1982 162.788 55.0874 162.289 54.8658C161.795 54.6399 161.403 54.3075 161.113 53.8686C160.828 53.4297 160.685 52.8885 160.685 52.245C160.685 51.6911 160.787 51.233 160.992 50.8707C161.196 50.5085 161.475 50.2188 161.829 50.0014C162.183 49.7841 162.581 49.62 163.024 49.5092C163.472 49.3942 163.934 49.3111 164.412 49.2599C164.987 49.2003 165.453 49.147 165.811 49.1001C166.169 49.049 166.429 48.9723 166.591 48.87C166.757 48.7635 166.84 48.5994 166.84 48.3778V48.3395C166.84 47.858 166.698 47.4851 166.412 47.2209C166.127 46.9567 165.715 46.8246 165.179 46.8246C164.612 46.8246 164.162 46.9482 163.83 47.1953C163.502 47.4425 163.28 47.7344 163.165 48.071L161.005 47.7642C161.175 47.1676 161.456 46.669 161.848 46.2685C162.24 45.8636 162.72 45.5611 163.287 45.3608C163.853 45.1562 164.48 45.054 165.166 45.054C165.639 45.054 166.11 45.1094 166.578 45.2202C167.047 45.331 167.475 45.5142 167.863 45.7699C168.251 46.0213 168.562 46.3643 168.796 46.799C169.035 47.2337 169.154 47.777 169.154 48.429V55H166.93V53.6513H166.853C166.713 53.924 166.514 54.1797 166.259 54.4183C166.007 54.6527 165.69 54.8423 165.306 54.9872C164.927 55.1278 164.482 55.1982 163.97 55.1982ZM164.571 53.4979C165.036 53.4979 165.438 53.4062 165.779 53.223C166.12 53.0355 166.382 52.7884 166.566 52.4815C166.753 52.1747 166.847 51.8402 166.847 51.478V50.321C166.774 50.3807 166.651 50.4361 166.476 50.4872C166.306 50.5384 166.114 50.5831 165.901 50.6214C165.688 50.6598 165.477 50.6939 165.268 50.7237C165.059 50.7536 164.878 50.7791 164.725 50.8004C164.38 50.8473 164.071 50.924 163.798 51.0305C163.525 51.1371 163.31 51.2862 163.152 51.478C162.995 51.6655 162.916 51.9084 162.916 52.2067C162.916 52.6328 163.071 52.9545 163.382 53.1719C163.693 53.3892 164.09 53.4979 164.571 53.4979ZM181.723 45.5078C181.663 44.9496 181.411 44.5149 180.968 44.2038C180.529 43.8928 179.958 43.7372 179.255 43.7372C178.761 43.7372 178.337 43.8118 177.983 43.9609C177.63 44.1101 177.359 44.3125 177.171 44.5682C176.984 44.8239 176.888 45.1158 176.884 45.4439C176.884 45.7166 176.946 45.9531 177.069 46.1534C177.197 46.3537 177.37 46.5241 177.587 46.6648C177.804 46.8011 178.045 46.9162 178.309 47.0099C178.573 47.1037 178.84 47.1825 179.108 47.2464L180.335 47.5533C180.83 47.6683 181.305 47.8239 181.761 48.0199C182.221 48.2159 182.632 48.4631 182.995 48.7614C183.361 49.0597 183.651 49.4197 183.864 49.8416C184.077 50.2635 184.184 50.7578 184.184 51.3246C184.184 52.0916 183.987 52.767 183.595 53.3509C183.203 53.9304 182.637 54.3842 181.895 54.7124C181.158 55.0362 180.265 55.1982 179.217 55.1982C178.198 55.1982 177.314 55.0405 176.564 54.7251C175.818 54.4098 175.235 53.9496 174.813 53.3445C174.395 52.7393 174.169 52.0021 174.135 51.1328H176.468C176.502 51.5888 176.643 51.968 176.89 52.2706C177.137 52.5732 177.459 52.799 177.855 52.9482C178.256 53.0973 178.703 53.1719 179.198 53.1719C179.713 53.1719 180.165 53.0952 180.553 52.9418C180.945 52.7841 181.252 52.5668 181.473 52.2898C181.695 52.0085 181.808 51.6804 181.812 51.3054C181.808 50.9645 181.708 50.6832 181.512 50.4616C181.316 50.2358 181.041 50.0483 180.687 49.8991C180.338 49.7457 179.929 49.6094 179.46 49.4901L177.97 49.1065C176.892 48.8295 176.04 48.4098 175.414 47.8473C174.791 47.2805 174.48 46.5284 174.48 45.5909C174.48 44.8196 174.689 44.1442 175.107 43.5646C175.529 42.9851 176.102 42.5355 176.826 42.2159C177.551 41.892 178.371 41.7301 179.287 41.7301C180.216 41.7301 181.03 41.892 181.729 42.2159C182.432 42.5355 182.984 42.9808 183.385 43.5518C183.785 44.1186 183.992 44.7706 184.005 45.5078H181.723ZM187.789 49.2472V55H185.475V41.9091H187.738V46.8501H187.853C188.083 46.2962 188.439 45.8594 188.921 45.5398C189.407 45.2159 190.024 45.054 190.774 45.054C191.456 45.054 192.051 45.1967 192.558 45.4822C193.065 45.7678 193.457 46.1854 193.734 46.7351C194.015 47.2848 194.156 47.956 194.156 48.7486V55H191.842V49.1065C191.842 48.446 191.671 47.9325 191.331 47.5661C190.994 47.1953 190.521 47.0099 189.911 47.0099C189.502 47.0099 189.136 47.0994 188.812 47.2784C188.492 47.4531 188.241 47.7067 188.058 48.0391C187.879 48.3714 187.789 48.7741 187.789 49.2472ZM198.62 55.1982C197.998 55.1982 197.437 55.0874 196.939 54.8658C196.444 54.6399 196.052 54.3075 195.763 53.8686C195.477 53.4297 195.334 52.8885 195.334 52.245C195.334 51.6911 195.437 51.233 195.641 50.8707C195.846 50.5085 196.125 50.2188 196.478 50.0014C196.832 49.7841 197.231 49.62 197.674 49.5092C198.121 49.3942 198.584 49.3111 199.061 49.2599C199.636 49.2003 200.103 49.147 200.461 49.1001C200.819 49.049 201.079 48.9723 201.24 48.87C201.407 48.7635 201.49 48.5994 201.49 48.3778V48.3395C201.49 47.858 201.347 47.4851 201.062 47.2209C200.776 46.9567 200.365 46.8246 199.828 46.8246C199.261 46.8246 198.812 46.9482 198.479 47.1953C198.151 47.4425 197.929 47.7344 197.814 48.071L195.654 47.7642C195.824 47.1676 196.106 46.669 196.498 46.2685C196.89 45.8636 197.369 45.5611 197.936 45.3608C198.503 45.1562 199.129 45.054 199.815 45.054C200.288 45.054 200.759 45.1094 201.228 45.2202C201.696 45.331 202.125 45.5142 202.513 45.7699C202.9 46.0213 203.211 46.3643 203.446 46.799C203.684 47.2337 203.804 47.777 203.804 48.429V55H201.579V53.6513H201.503C201.362 53.924 201.164 54.1797 200.908 54.4183C200.657 54.6527 200.339 54.8423 199.956 54.9872C199.576 55.1278 199.131 55.1982 198.62 55.1982ZM199.221 53.4979C199.685 53.4979 200.088 53.4062 200.429 53.223C200.77 53.0355 201.032 52.7884 201.215 52.4815C201.402 52.1747 201.496 51.8402 201.496 51.478V50.321C201.424 50.3807 201.3 50.4361 201.125 50.4872C200.955 50.5384 200.763 50.5831 200.55 50.6214C200.337 50.6598 200.126 50.6939 199.917 50.7237C199.709 50.7536 199.527 50.7791 199.374 50.8004C199.029 50.8473 198.72 50.924 198.447 51.0305C198.174 51.1371 197.959 51.2862 197.802 51.478C197.644 51.6655 197.565 51.9084 197.565 52.2067C197.565 52.6328 197.721 52.9545 198.032 53.1719C198.343 53.3892 198.739 53.4979 199.221 53.4979ZM209.054 55.1726C208.283 55.1726 207.592 54.9744 206.983 54.5781C206.373 54.1818 205.892 53.6065 205.538 52.8523C205.185 52.098 205.008 51.1818 205.008 50.1037C205.008 49.0128 205.187 48.0923 205.545 47.3423C205.907 46.5881 206.395 46.0192 207.008 45.6357C207.622 45.2479 208.306 45.054 209.06 45.054C209.636 45.054 210.109 45.152 210.479 45.348C210.85 45.5398 211.144 45.772 211.361 46.0447C211.579 46.3132 211.747 46.5668 211.866 46.8054H211.962V41.9091H214.283V55H212.007V53.4531H211.866C211.747 53.6918 211.574 53.9453 211.349 54.2138C211.123 54.478 210.824 54.7038 210.454 54.8913C210.083 55.0788 209.616 55.1726 209.054 55.1726ZM209.699 53.2741C210.19 53.2741 210.607 53.142 210.952 52.8778C211.297 52.6094 211.56 52.2365 211.739 51.7592C211.918 51.282 212.007 50.7259 212.007 50.0909C212.007 49.456 211.918 48.9041 211.739 48.4354C211.564 47.9666 211.304 47.6023 210.959 47.3423C210.618 47.0824 210.198 46.9524 209.699 46.9524C209.184 46.9524 208.753 47.0866 208.408 47.3551C208.063 47.6236 207.803 47.9943 207.628 48.4673C207.454 48.9403 207.366 49.4815 207.366 50.0909C207.366 50.7045 207.454 51.2521 207.628 51.7337C207.807 52.2109 208.069 52.5881 208.415 52.8651C208.764 53.1378 209.192 53.2741 209.699 53.2741ZM220.311 55.1918C219.331 55.1918 218.489 54.9766 217.786 54.5462C217.087 54.1158 216.548 53.5213 216.169 52.7628C215.794 52 215.606 51.1222 215.606 50.1293C215.606 49.1321 215.798 48.2521 216.182 47.4893C216.565 46.7223 217.106 46.1257 217.805 45.6996C218.508 45.2692 219.339 45.054 220.298 45.054C221.095 45.054 221.8 45.201 222.414 45.495C223.032 45.7848 223.524 46.196 223.891 46.7287C224.257 47.2571 224.466 47.875 224.517 48.5824H222.305C222.216 48.1094 222.003 47.7152 221.666 47.3999C221.334 47.0803 220.888 46.9205 220.33 46.9205C219.857 46.9205 219.442 47.0483 219.084 47.304C218.726 47.5554 218.447 47.9176 218.246 48.3906C218.05 48.8636 217.952 49.4304 217.952 50.0909C217.952 50.7599 218.05 51.3352 218.246 51.8168C218.442 52.294 218.717 52.6626 219.071 52.9226C219.429 53.1783 219.849 53.3061 220.33 53.3061C220.671 53.3061 220.976 53.2422 221.244 53.1143C221.517 52.9822 221.745 52.7926 221.928 52.5455C222.111 52.2983 222.237 51.9979 222.305 51.6442H224.517C224.462 52.3388 224.257 52.9545 223.903 53.4915C223.55 54.0241 223.068 54.4418 222.459 54.7443C221.849 55.0426 221.133 55.1918 220.311 55.1918ZM228.011 49.2472V55H225.697V45.1818H227.909V46.8501H228.024C228.25 46.3004 228.61 45.8636 229.104 45.5398C229.603 45.2159 230.218 45.054 230.951 45.054C231.629 45.054 232.219 45.1989 232.722 45.4886C233.229 45.7784 233.621 46.1982 233.898 46.7479C234.179 47.2976 234.318 47.9645 234.313 48.7486V55H232V49.1065C232 48.4503 231.829 47.9368 231.488 47.5661C231.152 47.1953 230.685 47.0099 230.088 47.0099C229.683 47.0099 229.323 47.0994 229.008 47.2784C228.697 47.4531 228.452 47.7067 228.273 48.0391C228.098 48.3714 228.011 48.7741 228.011 49.2472ZM248.045 41.9091H250.416V50.4616C250.416 51.3991 250.195 52.2237 249.752 52.9354C249.313 53.647 248.695 54.2031 247.898 54.6037C247.101 55 246.17 55.1982 245.105 55.1982C244.035 55.1982 243.102 55 242.305 54.6037C241.508 54.2031 240.89 53.647 240.451 52.9354C240.012 52.2237 239.793 51.3991 239.793 50.4616V41.9091H242.164V50.2635C242.164 50.8089 242.284 51.2947 242.522 51.7209C242.765 52.147 243.106 52.4815 243.545 52.7244C243.984 52.9631 244.504 53.0824 245.105 53.0824C245.705 53.0824 246.225 52.9631 246.664 52.7244C247.107 52.4815 247.448 52.147 247.687 51.7209C247.926 51.2947 248.045 50.8089 248.045 50.2635V41.9091ZM254.645 41.9091V55H252.274V41.9091H254.645ZM260.238 55V41.9091H262.552V46.8054H262.648C262.767 46.5668 262.936 46.3132 263.153 46.0447C263.37 45.772 263.664 45.5398 264.035 45.348C264.406 45.152 264.879 45.054 265.454 45.054C266.213 45.054 266.897 45.2479 267.506 45.6357C268.12 46.0192 268.605 46.5881 268.963 47.3423C269.326 48.0923 269.507 49.0128 269.507 50.1037C269.507 51.1818 269.33 52.098 268.976 52.8523C268.623 53.6065 268.141 54.1818 267.532 54.5781C266.922 54.9744 266.232 55.1726 265.461 55.1726C264.898 55.1726 264.431 55.0788 264.061 54.8913C263.69 54.7038 263.392 54.478 263.166 54.2138C262.944 53.9453 262.772 53.6918 262.648 53.4531H262.514V55H260.238ZM262.507 50.0909C262.507 50.7259 262.597 51.282 262.776 51.7592C262.959 52.2365 263.221 52.6094 263.562 52.8778C263.907 53.142 264.325 53.2741 264.815 53.2741C265.326 53.2741 265.755 53.1378 266.1 52.8651C266.445 52.5881 266.705 52.2109 266.88 51.7337C267.059 51.2521 267.148 50.7045 267.148 50.0909C267.148 49.4815 267.061 48.9403 266.886 48.4673C266.711 47.9943 266.451 47.6236 266.106 47.3551C265.761 47.0866 265.331 46.9524 264.815 46.9524C264.321 46.9524 263.901 47.0824 263.556 47.3423C263.211 47.6023 262.949 47.9666 262.77 48.4354C262.595 48.9041 262.507 49.456 262.507 50.0909ZM273.068 41.9091V55H270.754V41.9091H273.068ZM279.01 55.1918C278.051 55.1918 277.22 54.9808 276.517 54.5589C275.814 54.1371 275.268 53.5469 274.881 52.7884C274.497 52.0298 274.305 51.1435 274.305 50.1293C274.305 49.1151 274.497 48.2266 274.881 47.4638C275.268 46.701 275.814 46.1087 276.517 45.6868C277.22 45.2649 278.051 45.054 279.01 45.054C279.969 45.054 280.8 45.2649 281.503 45.6868C282.206 46.1087 282.749 46.701 283.133 47.4638C283.521 48.2266 283.714 49.1151 283.714 50.1293C283.714 51.1435 283.521 52.0298 283.133 52.7884C282.749 53.5469 282.206 54.1371 281.503 54.5589C280.8 54.9808 279.969 55.1918 279.01 55.1918ZM279.023 53.3381C279.543 53.3381 279.977 53.1953 280.327 52.9098C280.676 52.62 280.936 52.2322 281.107 51.7464C281.281 51.2607 281.369 50.7195 281.369 50.1229C281.369 49.522 281.281 48.9787 281.107 48.4929C280.936 48.0028 280.676 47.6129 280.327 47.3232C279.977 47.0334 279.543 46.8885 279.023 46.8885C278.49 46.8885 278.047 47.0334 277.693 47.3232C277.344 47.6129 277.082 48.0028 276.907 48.4929C276.737 48.9787 276.651 49.522 276.651 50.1229C276.651 50.7195 276.737 51.2607 276.907 51.7464C277.082 52.2322 277.344 52.62 277.693 52.9098C278.047 53.1953 278.49 53.3381 279.023 53.3381ZM289.241 55.1918C288.261 55.1918 287.419 54.9766 286.716 54.5462C286.017 54.1158 285.478 53.5213 285.099 52.7628C284.724 52 284.537 51.1222 284.537 50.1293C284.537 49.1321 284.728 48.2521 285.112 47.4893C285.495 46.7223 286.037 46.1257 286.735 45.6996C287.439 45.2692 288.27 45.054 289.228 45.054C290.025 45.054 290.73 45.201 291.344 45.495C291.962 45.7848 292.454 46.196 292.821 46.7287C293.187 47.2571 293.396 47.875 293.447 48.5824H291.235C291.146 48.1094 290.933 47.7152 290.596 47.3999C290.264 47.0803 289.819 46.9205 289.26 46.9205C288.787 46.9205 288.372 47.0483 288.014 47.304C287.656 47.5554 287.377 47.9176 287.176 48.3906C286.98 48.8636 286.882 49.4304 286.882 50.0909C286.882 50.7599 286.98 51.3352 287.176 51.8168C287.373 52.294 287.647 52.6626 288.001 52.9226C288.359 53.1783 288.779 53.3061 289.26 53.3061C289.601 53.3061 289.906 53.2422 290.174 53.1143C290.447 52.9822 290.675 52.7926 290.858 52.5455C291.042 52.2983 291.167 51.9979 291.235 51.6442H293.447C293.392 52.3388 293.187 52.9545 292.833 53.4915C292.48 54.0241 291.998 54.4418 291.389 54.7443C290.779 55.0426 290.064 55.1918 289.241 55.1918ZM296.736 51.919L296.73 49.1257H297.101L300.629 45.1818H303.333L298.993 50.0142H298.513L296.736 51.919ZM294.627 55V41.9091H296.941V55H294.627ZM300.789 55L297.593 50.532L299.153 48.902L303.557 55H300.789ZM311.915 47.777L309.806 48.0071C309.746 47.794 309.642 47.5938 309.493 47.4062C309.348 47.2188 309.152 47.0675 308.904 46.9524C308.657 46.8374 308.355 46.7798 307.997 46.7798C307.515 46.7798 307.11 46.8842 306.782 47.093C306.458 47.3018 306.299 47.5724 306.303 47.9048C306.299 48.1903 306.403 48.4226 306.616 48.6016C306.833 48.7805 307.191 48.9276 307.69 49.0426L309.365 49.4006C310.294 49.6009 310.984 49.9183 311.436 50.353C311.892 50.7876 312.122 51.3565 312.126 52.0597C312.122 52.6776 311.941 53.223 311.583 53.696C311.229 54.1648 310.737 54.5312 310.106 54.7955C309.475 55.0597 308.751 55.1918 307.933 55.1918C306.731 55.1918 305.764 54.9403 305.031 54.4375C304.298 53.9304 303.861 53.2251 303.721 52.3217L305.977 52.1044C306.079 52.5476 306.297 52.8821 306.629 53.108C306.961 53.3338 307.394 53.4467 307.926 53.4467C308.476 53.4467 308.917 53.3338 309.25 53.108C309.586 52.8821 309.755 52.603 309.755 52.2706C309.755 51.9893 309.646 51.7571 309.429 51.5739C309.216 51.3906 308.883 51.25 308.431 51.152L306.757 50.8004C305.815 50.6044 305.118 50.2741 304.667 49.8097C304.215 49.3409 303.991 48.7486 303.995 48.0327C303.991 47.4276 304.155 46.9034 304.488 46.4602C304.824 46.0128 305.291 45.6676 305.887 45.4247C306.488 45.1776 307.181 45.054 307.965 45.054C309.115 45.054 310.021 45.299 310.681 45.7891C311.346 46.2791 311.757 46.9418 311.915 47.777Z" fill="#9A90B5"/>
</svg>
