<svg width="2187" height="618" viewBox="0 0 2187 618" fill="none" xmlns="http://www.w3.org/2000/svg">
<path d="M636.192 23.2188V190.858H241.8L134.994 370.385C130.814 377.444 123.245 381.716 115.026 381.716H23.2188C10.402 381.716 0 371.315 0 358.498V190.858H224.758L318.004 34.0387C330.542 12.9096 353.297 0 377.862 0H612.977C625.795 0 636.192 10.402 636.192 23.2188Z" fill="black"/>
<path d="M0 594.071V426.434H394.394L501.2 246.907C505.38 239.848 512.949 235.576 521.169 235.576H613.019C625.838 235.576 636.24 245.978 636.24 258.795V426.434H411.483L318.236 583.255C305.698 604.383 282.944 617.292 258.379 617.292H23.2188C10.402 617.292 0 606.889 0 594.071Z" fill="black"/>
<path d="M895.215 282.718C875.373 282.718 860.492 278.442 850.571 269.889C840.65 261.166 835.176 250.047 834.15 236.534L862.116 235.252C863.314 242.778 866.393 248.764 871.353 253.212C876.314 257.659 884.267 259.883 895.215 259.883C903.767 259.883 910.267 258.514 914.714 255.777C919.333 253.041 921.642 248.679 921.642 242.692C921.642 239.271 920.872 236.449 919.333 234.225C917.793 232.002 914.8 230.12 910.352 228.581C905.905 226.87 899.32 225.245 890.596 223.706C877.254 221.14 866.82 218.147 859.294 214.726C851.939 211.134 846.722 206.772 843.643 201.64C840.564 196.338 839.025 189.923 839.025 182.397C839.025 170.082 843.729 159.99 853.136 152.122C862.544 144.082 876.143 140.063 893.932 140.063C906.418 140.063 916.681 142.201 924.721 146.477C932.76 150.582 938.832 156.056 942.937 162.898C947.043 169.74 949.523 177.095 950.378 184.963L922.411 186.502C921.898 180.003 919.418 174.443 914.971 169.825C910.695 165.207 903.51 162.898 893.419 162.898C884.524 162.898 877.939 164.608 873.662 168.029C869.386 171.45 867.248 175.897 867.248 181.371C867.248 187.358 869.215 191.89 873.149 194.969C877.254 197.877 884.866 200.186 895.984 201.897C909.839 204.121 920.615 207.028 928.313 210.62C936.181 214.041 941.74 218.403 944.99 223.706C948.24 228.837 949.865 235.08 949.865 242.436C949.865 255.264 944.819 265.185 934.727 272.198C924.635 279.211 911.464 282.718 895.215 282.718Z" fill="black"/>
<path d="M970.222 279.639V97.4712H997.419V162.898C1001.01 155.029 1006.31 149.299 1013.33 145.707C1020.51 141.944 1028.55 140.063 1037.44 140.063C1052.33 140.063 1063.7 144.937 1071.57 154.687C1079.44 164.266 1083.37 176.667 1083.37 191.891V279.639H1056.17V199.075C1056.17 174.957 1047.54 162.898 1030.26 162.898C1020.17 162.898 1012.13 166.062 1006.14 172.391C1000.33 178.549 997.419 187.614 997.419 199.588V279.639H970.222Z" fill="black"/>
<path d="M1149.59 282.718C1135.39 282.718 1124.02 279.468 1115.46 272.968C1107.08 266.468 1102.89 257.317 1102.89 245.515C1102.89 233.883 1106.4 224.732 1113.41 218.061C1120.59 211.39 1131.63 206.601 1146.51 203.693L1193.46 194.713C1193.46 173.674 1183.63 163.154 1163.96 163.154C1155.23 163.154 1148.39 165.121 1143.43 169.055C1138.47 172.99 1135.05 178.634 1133.17 185.989L1105.2 184.193C1107.77 170.509 1114.1 159.733 1124.19 151.865C1134.45 143.997 1147.71 140.063 1163.96 140.063C1182.43 140.063 1196.46 145.023 1206.03 154.944C1215.78 164.694 1220.66 178.463 1220.66 196.252V249.363C1220.66 252.613 1221.17 254.922 1222.2 256.291C1223.4 257.488 1225.28 258.087 1227.84 258.087H1232.72V279.639C1230.32 280.152 1226.99 280.409 1222.71 280.409C1215.01 280.409 1208.86 278.784 1204.24 275.534C1199.62 272.284 1196.8 266.639 1195.77 258.6C1192.35 265.784 1186.45 271.6 1178.07 276.047C1169.69 280.494 1160.19 282.718 1149.59 282.718ZM1153.95 261.166C1166.27 261.166 1175.93 257.659 1182.94 250.646C1189.96 243.633 1193.46 234.738 1193.46 223.962V215.239L1153.44 222.936C1145.23 224.475 1139.41 226.956 1135.99 230.377C1132.74 233.627 1131.11 237.817 1131.11 242.949C1131.11 248.764 1133.08 253.297 1137.02 256.547C1141.12 259.626 1146.77 261.166 1153.95 261.166Z" fill="black"/>
<path d="M1295.47 282.718C1283.84 282.718 1273.75 279.81 1265.2 273.994C1256.65 268.179 1250.06 259.968 1245.44 249.363C1240.82 238.587 1238.51 225.929 1238.51 211.39C1238.51 196.851 1240.82 184.279 1245.44 173.674C1250.06 162.898 1256.65 154.602 1265.2 148.786C1273.75 142.97 1283.84 140.063 1295.47 140.063C1304.88 140.063 1313.26 142.03 1320.62 145.964C1327.97 149.898 1333.53 155.371 1337.3 162.384V97.4712H1364.49V279.639H1339.09L1338.32 259.113C1334.56 266.639 1328.83 272.455 1321.13 276.56C1313.61 280.665 1305.05 282.718 1295.47 282.718ZM1302.66 259.113C1313.78 259.113 1322.33 254.922 1328.32 246.541C1334.3 238.159 1337.3 226.442 1337.3 211.39C1337.3 196.167 1334.3 184.45 1328.32 176.239C1322.33 167.858 1313.78 163.667 1302.66 163.667C1291.71 163.667 1282.99 167.944 1276.49 176.496C1269.99 184.877 1266.74 196.509 1266.74 211.39C1266.74 225.929 1269.99 237.561 1276.49 246.284C1282.99 254.837 1291.71 259.113 1302.66 259.113Z" fill="black"/>
<path d="M1449.07 282.718C1436.07 282.718 1424.69 279.81 1414.94 273.994C1405.19 268.008 1397.67 259.712 1392.37 249.107C1387.06 238.33 1384.41 225.758 1384.41 211.39C1384.41 197.022 1387.06 184.535 1392.37 173.93C1397.67 163.154 1405.19 154.858 1414.94 149.043C1424.69 143.056 1436.07 140.063 1449.07 140.063C1465.66 140.063 1479.43 144.424 1490.38 153.148C1501.32 161.7 1507.91 173.845 1510.13 189.581L1481.65 191.121C1480.28 182.226 1476.69 175.47 1470.88 170.851C1465.06 166.062 1457.79 163.667 1449.07 163.667C1437.61 163.667 1428.63 167.944 1422.13 176.496C1415.8 184.877 1412.63 196.509 1412.63 211.39C1412.63 226.442 1415.8 238.159 1422.13 246.541C1428.63 254.922 1437.61 259.113 1449.07 259.113C1457.79 259.113 1465.06 256.718 1470.88 251.929C1476.69 246.968 1480.28 239.528 1481.65 229.607L1510.13 231.146C1507.91 246.883 1501.32 259.455 1490.38 268.863C1479.6 278.099 1465.83 282.718 1449.07 282.718Z" fill="black"/>
<path d="M1527.25 279.639V143.141H1552.14L1552.65 167.003C1556.24 157.595 1561.72 150.753 1569.07 146.477C1576.43 142.201 1584.81 140.063 1594.21 140.063C1604.31 140.063 1612.77 142.372 1619.62 146.99C1626.46 151.437 1631.59 157.595 1635.01 165.463C1638.6 173.161 1640.4 181.97 1640.4 191.891V279.639H1613.2V200.101C1613.2 188.127 1611.15 178.976 1607.04 172.647C1603.11 166.148 1596.35 162.898 1586.77 162.898C1577.02 162.898 1569.16 166.148 1563.17 172.647C1557.35 178.976 1554.45 188.127 1554.45 200.101V279.639H1527.25Z" fill="black"/>
<path d="M1724.32 282.718C1711.32 282.718 1699.95 279.81 1690.2 273.994C1680.45 268.008 1672.92 259.712 1667.62 249.107C1662.32 238.33 1659.67 225.758 1659.67 211.39C1659.67 197.022 1662.32 184.535 1667.62 173.93C1672.92 163.154 1680.45 154.858 1690.2 149.043C1699.95 143.056 1711.32 140.063 1724.32 140.063C1740.92 140.063 1754.69 144.424 1765.63 153.148C1776.58 161.7 1783.17 173.845 1785.39 189.581L1756.91 191.121C1755.54 182.226 1751.95 175.47 1746.13 170.851C1740.32 166.062 1733.05 163.667 1724.32 163.667C1712.86 163.667 1703.88 167.944 1697.38 176.496C1691.05 184.877 1687.89 196.509 1687.89 211.39C1687.89 226.442 1691.05 238.159 1697.38 246.541C1703.88 254.922 1712.86 259.113 1724.32 259.113C1733.05 259.113 1740.32 256.718 1746.13 251.929C1751.95 246.968 1755.54 239.528 1756.91 229.607L1785.39 231.146C1783.17 246.883 1776.58 259.455 1765.63 268.863C1754.86 278.099 1741.09 282.718 1724.32 282.718Z" fill="black"/>
<path d="M1802.5 279.639V143.141H1827.39L1828.16 169.055C1830.73 160.161 1834.66 153.661 1839.96 149.556C1845.44 145.28 1852.37 143.141 1860.75 143.141H1873.83V167.516H1860.75C1850.31 167.516 1842.53 170.082 1837.4 175.213C1832.27 180.345 1829.7 188.298 1829.7 199.075V279.639H1802.5Z" fill="black"/>
<path d="M1924.24 282.718C1910.04 282.718 1898.67 279.468 1890.12 272.968C1881.74 266.468 1877.54 257.317 1877.54 245.515C1877.54 233.883 1881.05 224.732 1888.06 218.061C1895.25 211.39 1906.28 206.601 1921.16 203.693L1968.12 194.713C1968.12 173.674 1958.28 163.154 1938.61 163.154C1929.89 163.154 1923.04 165.121 1918.08 169.055C1913.12 172.99 1909.7 178.634 1907.82 185.989L1879.85 184.193C1882.42 170.509 1888.75 159.733 1898.84 151.865C1909.1 143.997 1922.36 140.063 1938.61 140.063C1957.08 140.063 1971.11 145.023 1980.69 154.944C1990.44 164.694 1995.31 178.463 1995.31 196.252V249.363C1995.31 252.613 1995.83 254.922 1996.85 256.291C1998.05 257.488 1999.93 258.087 2002.5 258.087H2007.37V279.639C2004.98 280.152 2001.64 280.409 1997.37 280.409C1989.67 280.409 1983.51 278.784 1978.89 275.534C1974.27 272.284 1971.45 266.639 1970.42 258.6C1967 265.784 1961.1 271.6 1952.72 276.047C1944.34 280.494 1934.85 282.718 1924.24 282.718ZM1928.6 261.166C1940.92 261.166 1950.58 257.659 1957.6 250.646C1964.61 243.633 1968.12 234.738 1968.12 223.962V215.239L1928.09 222.936C1919.88 224.475 1914.06 226.956 1910.64 230.377C1907.39 233.627 1905.77 237.817 1905.77 242.949C1905.77 248.764 1907.74 253.297 1911.67 256.547C1915.77 259.626 1921.42 261.166 1928.6 261.166Z" fill="black"/>
<path d="M2033.99 279.639V165.463H2015V143.141H2033.99V134.418C2033.99 123.129 2037.15 114.149 2043.48 107.478C2049.81 100.807 2059.64 97.4712 2072.99 97.4712H2097.36V119.793H2076.83C2066.4 119.793 2061.18 125.181 2061.18 135.957V143.141H2095.31V165.463H2061.18V279.639H2033.99Z" fill="black"/>
<path d="M2161.24 279.639C2148.24 279.639 2138.66 276.731 2132.51 270.915C2126.35 264.929 2123.27 255.521 2123.27 242.692V165.463H2102.49V143.141H2123.27V111.07H2150.47V143.141H2186.64V165.463H2150.47V240.64C2150.47 246.968 2151.83 251.33 2154.57 253.725C2157.31 256.12 2161.5 257.317 2167.14 257.317H2186.64V279.639H2161.24Z" fill="black"/>
<path d="M893.436 519.821C877.655 519.821 865.639 516.201 857.386 508.963C849.134 501.579 844.574 492.241 843.705 480.948L862.816 479.645C863.974 486.595 866.797 492.168 871.285 496.367C875.918 500.421 883.301 502.448 893.436 502.448C901.254 502.448 907.262 501.217 911.46 498.756C915.804 496.15 917.975 492.024 917.975 486.377C917.975 483.337 917.251 480.804 915.804 478.777C914.501 476.75 911.822 475.013 907.769 473.565C903.715 471.972 897.779 470.452 889.961 469.004C879.248 466.977 870.851 464.444 864.77 461.404C858.689 458.363 854.419 454.671 851.957 450.328C849.496 445.985 848.266 440.773 848.266 434.692C848.266 424.413 852.03 416.016 859.558 409.501C867.231 402.842 878.017 399.512 891.916 399.512C902.05 399.512 910.302 401.321 916.672 404.941C923.187 408.415 928.11 412.976 931.439 418.622C934.769 424.268 936.796 430.204 937.52 436.43L918.41 437.733C917.831 432.231 915.514 427.381 911.46 423.183C907.551 418.984 900.892 416.885 891.481 416.885C883.229 416.885 877.148 418.477 873.239 421.662C869.33 424.848 867.376 428.901 867.376 433.824C867.376 439.47 869.186 443.668 872.805 446.419C876.425 449.025 883.301 451.197 893.436 452.934C904.728 454.816 913.56 457.205 919.93 460.101C926.3 462.996 930.716 466.615 933.177 470.959C935.783 475.157 937.086 480.297 937.086 486.377C937.086 496.946 932.96 505.198 924.707 511.134C916.6 516.925 906.176 519.821 893.436 519.821Z" fill="#8F8B93"/>
<path d="M955.711 517.215V363.028H973.953V420.142C976.993 413.048 981.554 407.836 987.634 404.506C993.715 401.177 1000.74 399.512 1008.7 399.512C1021.15 399.512 1030.63 403.565 1037.15 411.673C1043.81 419.78 1047.14 430.277 1047.14 443.162V517.215H1028.9V448.374C1028.9 426.512 1020.86 415.582 1004.79 415.582C995.524 415.582 988.068 418.405 982.422 424.051C976.776 429.698 973.953 437.877 973.953 448.591V517.215H955.711Z" fill="#8F8B93"/>
<path d="M1104.31 519.821C1092.44 519.821 1082.96 517.07 1075.87 511.569C1068.92 506.067 1065.44 498.394 1065.44 488.549C1065.44 478.704 1068.34 470.959 1074.13 465.312C1079.92 459.666 1089.11 455.685 1101.71 453.368L1142.54 445.768C1142.54 426.512 1133.41 416.885 1115.17 416.885C1107.21 416.885 1100.91 418.695 1096.28 422.314C1091.65 425.789 1088.46 430.856 1086.72 437.515L1067.4 435.995C1069.57 425.137 1074.78 416.378 1083.03 409.718C1091.43 402.914 1102.14 399.512 1115.17 399.512C1129.94 399.512 1141.23 403.71 1149.05 412.107C1156.87 420.359 1160.78 431.797 1160.78 446.419V493.978C1160.78 498.756 1162.8 501.145 1166.86 501.145H1171.42V517.215C1169.68 517.504 1167.36 517.649 1164.47 517.649C1157.52 517.649 1152.31 516.274 1148.83 513.523C1145.5 510.627 1143.48 505.922 1142.75 499.407C1139.86 505.343 1134.86 510.266 1127.77 514.174C1120.67 517.939 1112.86 519.821 1104.31 519.821ZM1106.05 503.751C1117.63 503.751 1126.61 500.493 1132.98 493.978C1139.35 487.463 1142.54 479.428 1142.54 469.873V461.621L1105.18 468.57C1097.36 470.018 1091.94 472.262 1088.9 475.302C1086 478.198 1084.55 482.034 1084.55 486.812C1084.55 492.168 1086.43 496.367 1090.2 499.407C1094.11 502.303 1099.39 503.751 1106.05 503.751Z" fill="#8F8B93"/>
<path d="M1225.91 519.821C1215.92 519.821 1207.23 517.36 1199.85 512.437C1192.61 507.515 1187.04 500.566 1183.13 491.589C1179.22 482.613 1177.26 471.972 1177.26 459.666C1177.26 447.36 1179.22 436.719 1183.13 427.743C1187.04 418.767 1192.61 411.818 1199.85 406.895C1207.23 401.973 1215.92 399.512 1225.91 399.512C1233.58 399.512 1240.6 401.177 1246.97 404.506C1253.34 407.692 1258.12 412.252 1261.31 418.188V363.028H1279.55V517.215H1263.04L1262.39 499.842C1259.21 506.067 1254.36 510.989 1247.84 514.609C1241.33 518.083 1234.02 519.821 1225.91 519.821ZM1229.6 502.448C1239.88 502.448 1247.7 498.611 1253.05 490.938C1258.56 483.265 1261.31 472.841 1261.31 459.666C1261.31 446.347 1258.56 435.923 1253.05 428.395C1247.7 420.721 1239.88 416.885 1229.6 416.885C1219.47 416.885 1211.36 420.721 1205.28 428.395C1199.34 435.923 1196.37 446.347 1196.37 459.666C1196.37 472.841 1199.34 483.265 1205.28 490.938C1211.36 498.611 1219.47 502.448 1229.6 502.448Z" fill="#8F8B93"/>
<path d="M1350.55 519.821C1339.84 519.821 1330.5 517.36 1322.54 512.437C1314.72 507.515 1308.64 500.566 1304.3 491.589C1299.95 482.468 1297.78 471.827 1297.78 459.666C1297.78 447.505 1299.95 436.936 1304.3 427.96C1308.64 418.984 1314.72 412.035 1322.54 407.112C1330.5 402.045 1339.84 399.512 1350.55 399.512C1363.87 399.512 1374.88 402.986 1383.56 409.936C1392.25 416.74 1397.53 426.585 1399.42 439.47L1380.3 440.773C1379 433.1 1375.67 427.236 1370.32 423.183C1364.96 418.984 1358.37 416.885 1350.55 416.885C1339.98 416.885 1331.73 420.721 1325.8 428.395C1319.86 435.923 1316.89 446.347 1316.89 459.666C1316.89 472.986 1319.86 483.482 1325.8 491.155C1331.73 498.683 1339.98 502.448 1350.55 502.448C1358.37 502.448 1364.96 500.276 1370.32 495.933C1375.67 491.589 1379 485.074 1380.3 476.388L1399.42 477.691C1397.53 490.431 1392.25 500.638 1383.56 508.311C1374.88 515.984 1363.87 519.821 1350.55 519.821Z" fill="#8F8B93"/>
<path d="M1415.51 517.215V402.118H1432.24L1432.67 422.748C1435.71 414.786 1440.34 408.922 1446.57 405.158C1452.94 401.394 1460.11 399.512 1468.07 399.512C1476.9 399.512 1484.14 401.466 1489.78 405.375C1495.58 409.284 1499.85 414.568 1502.6 421.228C1505.49 427.743 1506.94 435.054 1506.94 443.162V517.215H1488.7V448.374C1488.7 437.66 1486.74 429.553 1482.84 424.051C1479.07 418.405 1472.85 415.582 1464.16 415.582C1455.33 415.582 1448.02 418.405 1442.23 424.051C1436.58 429.553 1433.76 437.66 1433.76 448.374V517.215H1415.51Z" fill="#8F8B93"/>
<path d="M1635.73 519.821C1627.77 519.821 1620.67 518.083 1614.45 514.609C1608.22 510.989 1603.45 506.067 1600.12 499.842L1599.46 517.215H1582.96V363.028H1601.2V418.188C1604.1 413.41 1608.59 409.139 1614.67 405.375C1620.75 401.466 1627.77 399.512 1635.73 399.512C1645.86 399.512 1654.62 401.973 1662.01 406.895C1669.39 411.818 1675.11 418.767 1679.16 427.743C1683.22 436.719 1685.24 447.36 1685.24 459.666C1685.24 471.972 1683.22 482.613 1679.16 491.589C1675.11 500.566 1669.39 507.515 1662.01 512.437C1654.62 517.36 1645.86 519.821 1635.73 519.821ZM1634.64 502.448C1644.34 502.448 1652.02 498.611 1657.66 490.938C1663.31 483.265 1666.13 472.841 1666.13 459.666C1666.13 446.347 1663.31 435.923 1657.66 428.395C1652.02 420.721 1644.49 416.885 1635.08 416.885C1624.51 416.885 1616.19 420.721 1610.11 428.395C1604.17 435.923 1601.2 446.347 1601.2 459.666C1601.2 472.841 1604.17 483.265 1610.11 490.938C1616.04 498.611 1624.22 502.448 1634.64 502.448Z" fill="#8F8B93"/>
<path d="M1727.12 517.215C1720.46 517.215 1715.03 515.477 1710.84 512.003C1706.64 508.528 1704.54 503.027 1704.54 495.498V363.028H1722.78V493.978C1722.78 498.756 1725.17 501.145 1729.95 501.145H1739.94V517.215H1727.12Z" fill="#8F8B93"/>
<path d="M1799.6 519.821C1789.03 519.821 1779.77 517.36 1771.8 512.437C1763.84 507.515 1757.69 500.566 1753.34 491.589C1749 482.468 1746.83 471.827 1746.83 459.666C1746.83 447.36 1749 436.719 1753.34 427.743C1757.69 418.767 1763.84 411.818 1771.8 406.895C1779.77 401.973 1789.03 399.512 1799.6 399.512C1810.17 399.512 1819.36 401.973 1827.18 406.895C1835.14 411.818 1841.3 418.767 1845.64 427.743C1849.98 436.719 1852.15 447.36 1852.15 459.666C1852.15 471.827 1849.98 482.468 1845.64 491.589C1841.3 500.566 1835.14 507.515 1827.18 512.437C1819.36 517.36 1810.17 519.821 1799.6 519.821ZM1799.6 502.448C1810.17 502.448 1818.35 498.683 1824.14 491.155C1830.08 483.482 1833.04 472.986 1833.04 459.666C1833.04 446.347 1830.08 435.923 1824.14 428.395C1818.35 420.721 1810.17 416.885 1799.6 416.885C1789.03 416.885 1780.78 420.721 1774.84 428.395C1768.91 435.923 1765.94 446.347 1765.94 459.666C1765.94 472.986 1768.91 483.482 1774.84 491.155C1780.78 498.683 1789.03 502.448 1799.6 502.448Z" fill="#8F8B93"/>
<path d="M1915.45 519.821C1904.74 519.821 1895.4 517.36 1887.44 512.437C1879.62 507.515 1873.54 500.566 1869.2 491.589C1864.85 482.468 1862.68 471.827 1862.68 459.666C1862.68 447.505 1864.85 436.936 1869.2 427.96C1873.54 418.984 1879.62 412.035 1887.44 407.112C1895.4 402.045 1904.74 399.512 1915.45 399.512C1928.77 399.512 1939.77 402.986 1948.46 409.936C1957.15 416.74 1962.43 426.585 1964.31 439.47L1945.2 440.773C1943.9 433.1 1940.57 427.236 1935.21 423.183C1929.86 418.984 1923.27 416.885 1915.45 416.885C1904.88 416.885 1896.63 420.721 1890.7 428.395C1884.76 435.923 1881.79 446.347 1881.79 459.666C1881.79 472.986 1884.76 483.482 1890.7 491.155C1896.63 498.683 1904.88 502.448 1915.45 502.448C1923.27 502.448 1929.86 500.276 1935.21 495.933C1940.57 491.589 1943.9 485.074 1945.2 476.388L1964.31 477.691C1962.43 490.431 1957.15 500.638 1948.46 508.311C1939.77 515.984 1928.77 519.821 1915.45 519.821Z" fill="#8F8B93"/>
<path d="M1980.41 517.215V363.028H1998.65V464.01L2054.68 402.118H2079.01L2033.62 450.98L2080.96 517.215H2058.81L2021.24 463.358L1998.65 487.246V517.215H1980.41Z" fill="#8F8B93"/>
<path d="M2133.09 519.821C2117.31 519.821 2105.29 516.201 2097.04 508.963C2088.79 501.579 2084.23 492.241 2083.36 480.948L2102.47 479.645C2103.63 486.595 2106.45 492.168 2110.94 496.367C2115.57 500.421 2122.95 502.448 2133.09 502.448C2140.91 502.448 2146.91 501.217 2151.11 498.756C2155.46 496.15 2157.63 492.024 2157.63 486.377C2157.63 483.337 2156.9 480.804 2155.46 478.777C2154.15 476.75 2151.47 475.013 2147.42 473.565C2143.37 471.972 2137.43 470.452 2129.61 469.004C2118.9 466.977 2110.5 464.444 2104.42 461.404C2098.34 458.363 2094.07 454.671 2091.61 450.328C2089.15 445.985 2087.92 440.773 2087.92 434.692C2087.92 424.413 2091.68 416.016 2099.21 409.501C2106.88 402.842 2117.67 399.512 2131.57 399.512C2141.7 399.512 2149.95 401.321 2156.32 404.941C2162.84 408.415 2167.76 412.976 2171.09 418.622C2174.42 424.268 2176.45 430.204 2177.17 436.43L2158.06 437.733C2157.48 432.231 2155.17 427.381 2151.11 423.183C2147.2 418.984 2140.54 416.885 2131.13 416.885C2122.88 416.885 2116.8 418.477 2112.89 421.662C2108.98 424.848 2107.03 428.901 2107.03 433.824C2107.03 439.47 2108.84 443.668 2112.46 446.419C2116.08 449.025 2122.95 451.197 2133.09 452.934C2144.38 454.816 2153.21 457.205 2159.58 460.101C2165.95 462.996 2170.37 466.615 2172.83 470.959C2175.43 475.157 2176.74 480.297 2176.74 486.377C2176.74 496.946 2172.61 505.198 2164.36 511.134C2156.25 516.925 2145.83 519.821 2133.09 519.821Z" fill="#8F8B93"/>
</svg>
