<svg width="239" height="66" viewBox="0 0 239 66" fill="none" xmlns="http://www.w3.org/2000/svg">
<g clip-path="url(#clip0_2918_3)">
<mask id="mask0_2918_3" style="mask-type:luminance" maskUnits="userSpaceOnUse" x="0" y="0" width="239" height="66">
<path d="M239 0H0V66H239V0Z" fill="white"/>
</mask>
<g mask="url(#mask0_2918_3)">
<path fill-rule="evenodd" clip-rule="evenodd" d="M23.99 30H8.39649C3.75923 30 0 26.2392 0 21.6V8.4C0 3.7608 3.75923 0 8.39649 0H21.591C26.2282 0 29.9875 3.7608 29.9875 8.4V24H47.9799C51.2923 24 53.9774 26.6863 53.9774 30V50.2917C53.9774 52.5645 52.694 54.642 50.662 55.6584L31.0118 65.4876C30.3383 65.8245 29.5953 66 28.842 66C26.1623 66 23.99 63.8268 23.99 61.146V30ZM8.39649 6C7.07155 6 5.99749 7.07451 5.99749 8.4V21.6C5.99749 22.9255 7.07155 24 8.39649 24H23.99V8.4C23.99 7.07451 22.9159 6 21.591 6H8.39649ZM29.9875 30H45.5809C46.9058 30 47.9799 31.0746 47.9799 32.4V49.5276C47.9799 50.4309 47.4728 51.2577 46.668 51.6672L33.4735 58.3773C31.8776 59.1888 29.9875 58.0287 29.9875 56.2377V30Z" fill="white"/>
<path d="M81.6744 28.8216V45.2658C81.6744 46.38 81.9261 47.1888 82.4296 47.6919C82.9687 48.1593 83.8674 48.3927 85.1253 48.3927H88.8999V53.5149H84.047C81.2792 53.5149 79.1581 52.8678 77.6843 51.5739C76.2104 50.2797 75.4736 48.177 75.4736 45.2658V28.8216H71.9688V23.8075H75.4736V16.421H81.6744V23.8075H88.8999V28.8216H81.6744ZM91.9772 38.5263C91.9772 35.5431 92.5883 32.9013 93.8106 30.6009C95.0686 28.3004 96.7582 26.5212 98.8792 25.2632C101.036 23.9692 103.408 23.3222 105.997 23.3222C108.333 23.3222 110.364 23.7895 112.09 24.724C113.851 25.6226 115.253 26.7548 116.296 28.1207V23.8075H122.497V53.5149H116.296V49.0938C115.253 50.4954 113.833 51.6636 112.036 52.5981C110.239 53.5326 108.19 54 105.889 54C103.337 54 101 53.3529 98.8792 52.059C96.7582 50.7291 95.0686 48.8961 93.8106 46.5597C92.5883 44.1873 91.9772 41.5095 91.9772 38.5263ZM116.296 38.634C116.296 36.5853 115.864 34.8063 115.002 33.2964C114.175 31.7868 113.079 30.6366 111.712 29.846C110.346 29.0552 108.873 28.6598 107.291 28.6598C105.709 28.6598 104.235 29.0552 102.869 29.846C101.503 30.6009 100.389 31.7331 99.5262 33.2427C98.6995 34.7163 98.2859 36.4776 98.2859 38.5263C98.2859 40.575 98.6995 42.3723 99.5262 43.9179C100.389 45.4635 101.503 46.6494 102.869 47.4762C104.271 48.267 105.745 48.6624 107.291 48.6624C108.873 48.6624 110.346 48.267 111.712 47.4762C113.079 46.6854 114.175 45.5352 115.002 44.0256C115.864 42.48 116.296 40.683 116.296 38.634ZM133.159 19.8716C132.044 19.8716 131.11 19.4942 130.355 18.7394C129.6 17.9846 129.223 17.0501 129.223 15.9358C129.223 14.8216 129.6 13.887 130.355 13.1322C131.11 12.3774 132.044 12 133.159 12C134.237 12 135.154 12.3774 135.909 13.1322C136.664 13.887 137.041 14.8216 137.041 15.9358C137.041 17.0501 136.664 17.9846 135.909 18.7394C135.154 19.4942 134.237 19.8716 133.159 19.8716ZM136.178 23.8075V53.5149H130.031V23.8075H136.178ZM149.857 13.6174V53.5149H143.71V13.6174H149.857ZM155.339 38.5263C155.339 35.5431 155.95 32.9013 157.172 30.6009C158.43 28.3004 160.12 26.5212 162.241 25.2632C164.398 23.9692 166.77 23.3222 169.358 23.3222C171.695 23.3222 173.726 23.7895 175.452 24.724C177.213 25.6226 178.615 26.7548 179.657 28.1207V23.8075H185.858V53.5149H179.657V49.0938C178.615 50.4954 177.195 51.6636 175.398 52.5981C173.6 53.5326 171.551 54 169.25 54C166.698 54 164.362 53.3529 162.241 52.059C160.12 50.7291 158.43 48.8961 157.172 46.5597C155.95 44.1873 155.339 41.5095 155.339 38.5263ZM179.657 38.634C179.657 36.5853 179.226 34.8063 178.363 33.2964C177.537 31.7868 176.44 30.6366 175.074 29.846C173.708 29.0552 172.234 28.6598 170.653 28.6598C169.071 28.6598 167.597 29.0552 166.231 29.846C164.865 30.6009 163.751 31.7331 162.888 33.2427C162.061 34.7163 161.648 36.4776 161.648 38.5263C161.648 40.575 162.061 42.3723 162.888 43.9179C163.751 45.4635 164.865 46.6494 166.231 47.4762C167.633 48.267 169.107 48.6624 170.653 48.6624C172.234 48.6624 173.708 48.267 175.074 47.4762C176.44 46.6854 177.537 45.5352 178.363 44.0256C179.226 42.48 179.657 40.683 179.657 38.634ZM199.54 28.1207C200.439 26.6111 201.625 25.4429 203.099 24.6162C204.609 23.7535 206.388 23.3222 208.437 23.3222V29.6842H206.873C204.465 29.6842 202.631 30.2952 201.373 31.5174C200.151 32.7393 199.54 34.86 199.54 37.8792V53.5149H193.393V23.8075H199.54V28.1207ZM225.303 38.688L238.999 53.5149H230.695L219.695 40.7367V53.5149H213.548V13.6174H219.695V36.801L230.479 23.8075H238.999L225.303 38.688Z" fill="white"/>
</g>
</g>
<defs>
<clipPath id="clip0_2918_3">
<rect width="239" height="66" fill="white"/>
</clipPath>
</defs>
</svg>
