<svg width="18" height="18" viewBox="0 0 18 18" fill="none" xmlns="http://www.w3.org/2000/svg">
<path d="M0.22998 11.2218V6.80394C0.22998 5.04207 1.36073 4.09539 3.07002 4.09539C4.753 4.06909 5.80487 5.17355 5.75227 7.04061H3.80632C3.85892 6.3306 3.54336 5.80467 3.01742 5.83097C2.36001 5.83097 2.17593 6.27801 2.17593 7.1195V10.9588C2.17593 11.774 2.4389 12.1685 3.01742 12.1948C3.62225 12.1948 3.85892 11.5899 3.80632 10.9062H5.75227C5.85746 12.8259 4.64781 13.9566 2.93853 13.9303C1.28185 13.9303 0.22998 13.0099 0.22998 11.2218ZM6.46228 10.9062H8.27675C8.30305 11.7477 8.56601 12.2736 9.14454 12.2736C9.72306 12.2736 9.93344 11.9318 9.93344 11.1429C9.93344 10.4855 9.64417 10.1173 8.93417 9.77546L8.25045 9.4599C7.04081 8.88138 6.54117 8.17137 6.54117 6.75135C6.54117 5.17355 7.54044 4.06909 9.17084 4.06909C10.8012 4.06909 11.669 5.19985 11.6953 7.04061H9.93344C9.93344 6.27801 9.77566 5.75208 9.19713 5.75208C8.6712 5.75208 8.40823 6.01504 8.40823 6.67246C8.40823 7.32987 8.6449 7.59284 9.27602 7.85581L9.90714 8.14507C11.2483 8.77619 11.8268 9.59138 11.8268 11.1166C11.8268 12.9311 10.8012 13.9303 9.11824 13.9303C7.43526 13.9303 6.48858 12.7733 6.46228 10.9062ZM12.4053 10.9062H14.2461C14.2461 11.7477 14.5353 12.2736 15.0876 12.2736C15.6398 12.2736 15.8765 11.9318 15.8765 11.1429C15.8765 10.4855 15.6135 10.1173 14.8772 9.77546L14.1935 9.4599C12.9838 8.88138 12.5105 8.17137 12.5105 6.75135C12.5105 5.17355 13.4835 4.06909 15.1402 4.06909C16.7969 4.06909 17.6121 5.19985 17.6646 7.04061H15.9028C15.8765 6.27801 15.7187 5.75208 15.1402 5.75208C14.6142 5.75208 14.3776 6.01504 14.3776 6.67246C14.3776 7.32987 14.5879 7.59284 15.2191 7.85581L15.8765 8.14507C17.1913 8.77619 17.7698 9.59138 17.7698 11.1166C17.7698 12.9311 16.7443 13.9303 15.0613 13.9303C13.3783 13.9303 12.4316 12.7733 12.4053 10.9062Z" fill="white"/>
</svg>
