<svg width="18" height="18" viewBox="0 0 18 18" fill="none" xmlns="http://www.w3.org/2000/svg">
<path d="M2.01034 12.1389L3.63318 11.1567C3.94632 11.7118 4.23113 12.1816 4.91431 12.1816C5.56917 12.1816 5.98213 11.9254 5.98213 10.929V4.15281H7.97502V10.9572C7.97502 13.0213 6.76505 13.9609 4.99972 13.9609C3.40546 13.9609 2.48004 13.1352 2.01025 12.1387M9.0575 11.9253L10.6802 10.9858C11.1074 11.6834 11.6626 12.1959 12.6447 12.1959C13.4706 12.1959 13.9971 11.783 13.9971 11.2136C13.9971 10.5303 13.4562 10.2882 12.5451 9.88977L12.047 9.67604C10.6091 9.06409 9.65536 8.29533 9.65536 6.67249C9.65536 5.17771 10.7942 4.03882 12.5737 4.03882C13.8406 4.03882 14.7517 4.48019 15.4065 5.63325L13.8547 6.62982C13.513 6.01771 13.143 5.77574 12.5736 5.77574C11.9899 5.77574 11.6198 6.14587 11.6198 6.62982C11.6198 7.22768 11.9899 7.46983 12.844 7.83996L13.3422 8.05344C15.0363 8.77954 15.99 9.51972 15.99 11.1851C15.99 12.979 14.5807 13.9611 12.6874 13.9611C10.8368 13.9611 9.64103 13.0785 9.05742 11.9254" fill="white"/>
</svg>
