<svg width="18" height="18" viewBox="0 0 18 18" fill="none" xmlns="http://www.w3.org/2000/svg">
<path d="M13.9805 4.21259C14.486 4.32933 14.9454 4.59403 15.2999 4.97293C15.4948 5.17817 15.6646 5.40592 15.8056 5.65136C15.8122 5.67807 14.8951 6.29418 14.339 6.63784C14.3188 6.65149 14.2386 6.56424 14.1478 6.4301C14.0464 6.25531 13.9022 6.10915 13.7289 6.00533C13.5555 5.90151 13.3586 5.84343 13.1566 5.83655C12.5174 5.79263 12.1054 6.12739 12.1084 6.68711C12.1029 6.82462 12.1342 6.9611 12.1992 7.08241C12.3399 7.37325 12.601 7.54776 13.4213 7.90329C14.9313 8.55323 15.5795 8.98177 15.9795 9.59076C16.2056 9.97556 16.3448 10.4051 16.3875 10.8494C16.4301 11.2936 16.3752 11.7418 16.2265 12.1626C16.0222 12.6242 15.6979 13.0226 15.2875 13.3165C14.8771 13.6103 14.3954 13.7888 13.8926 13.8335C13.3582 13.8941 12.8183 13.8886 12.2853 13.8168C11.4688 13.6827 10.7167 13.2909 10.139 12.6986C9.92081 12.4527 9.73601 12.1791 9.58937 11.8848C9.65134 11.8395 9.71617 11.7983 9.78346 11.7614C9.87724 11.708 10.2322 11.5038 10.5669 11.3097L11.1747 10.9535L11.3018 11.1387C11.516 11.4444 11.7883 11.7049 12.1031 11.9056C12.4212 12.0801 12.7816 12.1628 13.144 12.1445C13.5064 12.1261 13.8566 12.0075 14.1556 11.8017C14.3097 11.6514 14.4061 11.4517 14.4278 11.2375C14.4495 11.0233 14.3952 10.8082 14.2743 10.6301C14.1104 10.3956 13.7757 10.1986 12.8242 9.78603C12.0782 9.53447 11.3986 9.11749 10.8364 8.56629C10.5689 8.26104 10.3712 7.90109 10.2571 7.51155C10.1728 7.0677 10.1603 6.61317 10.2203 6.16538C10.3318 5.65 10.5992 5.18141 10.9861 4.82316C11.373 4.46491 11.8608 4.23434 12.3832 4.16274C12.9151 4.09918 13.4536 4.11598 13.9805 4.21259ZM9.02846 5.09283L9.03499 5.95585H6.28685V13.7599H4.34891V5.95763H1.60077V5.11004C1.59347 4.81978 1.6014 4.52933 1.62451 4.2399C1.6346 4.22625 3.30544 4.21972 5.33123 4.22328L9.01778 4.23337L9.02846 5.09283Z" fill="white"/>
</svg>
