<svg width="18" height="18" viewBox="0 0 18 18" fill="none" xmlns="http://www.w3.org/2000/svg">
<path d="M9 3.89893C6.72998 3.89893 5.31865 5.02969 4.74902 7.29971C5.59922 6.16895 6.59395 5.74385 7.72471 6.02441C8.37086 6.18595 8.83846 6.65356 9.34858 7.17218C10.1818 8.02237 11.1255 9.0001 13.251 9.0001C15.521 9.0001 16.9323 7.86934 17.502 5.59932C16.6518 6.73008 15.657 7.15517 14.5263 6.87461C13.8801 6.71307 13.421 6.24546 12.9024 5.72685C12.0692 4.87665 11.1255 3.89893 9 3.89893ZM4.74902 9.0001C2.479 9.0001 1.06768 10.1309 0.498047 12.4009C1.34824 11.2701 2.34297 10.845 3.47373 11.1256C4.11988 11.2871 4.57898 11.7547 5.0976 12.2733C5.93079 13.1235 6.87451 14.1013 9 14.1013C11.27 14.1013 12.6813 12.9705 13.251 10.7005C12.4008 11.8312 11.4061 12.2563 10.2753 11.9758C9.62914 11.8142 9.17004 11.3466 8.65142 10.828C7.81823 9.97782 6.87451 9.0001 4.74902 9.0001Z" fill="white"/>
</svg>
